<?xml version="1.0" encoding="UTF-8" standalone="no"?>
<svg width="101px" height="100px" viewBox="0 0 101 100" version="1.1" xmlns="http://www.w3.org/2000/svg" xmlns:xlink="http://www.w3.org/1999/xlink">
    <!-- Generator: Sketch 39.1 (31720) - http://www.bohemiancoding.com/sketch -->
    <title>Combined Shape</title>
    <desc>Created with Sketch.</desc>
    <defs></defs>
    <g id="Page-1" stroke="none" stroke-width="1" fill="none" fill-rule="evenodd">
        <path d="M50.3,70.3 C34.8,70.3 22.1,57.7 22.1,42.1 L22.1,28.2 C22.1,12.7 34.7,0 50.3,0 C65.8,0 78.5,12.6 78.5,28.2 L78.5,42.1 C78.5,57.6 65.8,70.3 50.3,70.3 L50.3,70.3 Z M50.3,4 C37,4 26.1,14.9 26.1,28.2 L26.1,42.1 C26.1,55.4 36.9,66.3 50.3,66.3 C63.6,66.3 74.5,55.5 74.5,42.1 L74.5,28.2 C74.5,14.9 63.6,4 50.3,4 Z M88.3,100 L11.8,100 C5.3,100 0,94.7 0,88.2 L0,79.5 C0,75.6 2,70.5 11.3,67.8 L22.7,64.6 C23.8,64.3 24.9,64.9 25.2,66 C25.5,67.1 24.9,68.2 23.8,68.5 L12.4,71.7 C4,74.1 4,78.2 4,79.6 L4,88.3 C4,92.6 7.5,96.1 11.8,96.1 L88.3,96.1 C92.6,96.1 96.1,92.6 96.1,88.3 L96.1,79.6 C96.1,76 93.3,73.3 87.7,71.7 L76.8,68.7 C75.7,68.4 75.1,67.3 75.4,66.2 C75.7,65.1 76.8,64.5 77.9,64.8 L88.8,67.8 C98.1,70.5 100.1,75.7 100.1,79.5 L100.1,88.2 C100.2,94.7 94.9,100 88.3,100 Z" id="Combined-Shape" fill="#28403F"></path>
    </g>
</svg>