<?xml version="1.0" encoding="UTF-8" standalone="no"?>
<svg width="233px" height="240px" viewBox="0 0 233 240" version="1.1" xmlns="http://www.w3.org/2000/svg" xmlns:xlink="http://www.w3.org/1999/xlink">
    <!-- Generator: Sketch 40.2 (33826) - http://www.bohemiancoding.com/sketch -->
    <title>ic_furniture_big</title>
    <desc>Created with Sketch.</desc>
    <defs>
        <rect id="path-1" x="108" y="195" width="7" height="7" rx="3.5"></rect>
        <mask id="mask-2" maskContentUnits="userSpaceOnUse" maskUnits="objectBoundingBox" x="0" y="0" width="7" height="7" fill="white">
            <use xlink:href="#path-1"></use>
        </mask>
        <rect id="path-3" x="132" y="229" width="74" height="7" rx="3.5"></rect>
        <mask id="mask-4" maskContentUnits="userSpaceOnUse" maskUnits="objectBoundingBox" x="0" y="0" width="74" height="7" fill="white">
            <use xlink:href="#path-3"></use>
        </mask>
        <rect id="path-5" x="132" y="263" width="74" height="7" rx="3.5"></rect>
        <mask id="mask-6" maskContentUnits="userSpaceOnUse" maskUnits="objectBoundingBox" x="0" y="0" width="74" height="7" fill="white">
            <use xlink:href="#path-5"></use>
        </mask>
        <rect id="path-7" x="222" y="195" width="7" height="7" rx="3.5"></rect>
        <mask id="mask-8" maskContentUnits="userSpaceOnUse" maskUnits="objectBoundingBox" x="0" y="0" width="7" height="7" fill="white">
            <use xlink:href="#path-7"></use>
        </mask>
    </defs>
    <g id="Website" stroke="none" stroke-width="1" fill="none" fill-rule="evenodd" opacity="0.100000001">
        <g id="Цены" transform="translate(-73.000000, -1134.000000)" stroke="#FFFFFF">
            <g id="ic_furniture_big" transform="translate(21.000000, 1078.000000)">
                <polygon id="Path-4" stroke-width="4" points="64 58 64 166 266 166 266 58"></polygon>
                <polygon id="Path-5" stroke-width="4" points="54 182 54 283 283 283 283 182"></polygon>
                <use id="Rectangle-10" mask="url(#mask-2)" stroke-width="8" xlink:href="#path-1"></use>
                <use id="Rectangle-10-Copy-2" mask="url(#mask-4)" stroke-width="8" xlink:href="#path-3"></use>
                <use id="Rectangle-10-Copy-3" mask="url(#mask-6)" stroke-width="8" xlink:href="#path-5"></use>
                <use id="Rectangle-10-Copy" mask="url(#mask-8)" stroke-width="8" xlink:href="#path-7"></use>
                <polygon id="Path-5-Copy" stroke-width="4" points="54 216.246824 54 250 283 250 283 216"></polygon>
                <path d="M167,182 L167,215" id="Path-6" stroke-width="4"></path>
                <path d="M73,283 L73,296" id="Path-7" stroke-width="4"></path>
                <path d="M262,283 L262,296" id="Path-7-Copy" stroke-width="4"></path>
            </g>
        </g>
    </g>
</svg>