<?xml version="1.0" encoding="UTF-8" standalone="no"?>
<svg width="233px" height="141px" viewBox="0 0 233 141" version="1.1" xmlns="http://www.w3.org/2000/svg" xmlns:xlink="http://www.w3.org/1999/xlink">
    <!-- Generator: Sketch 40.2 (33826) - http://www.bohemiancoding.com/sketch -->
    <title>ic_wood_big</title>
    <desc>Created with Sketch.</desc>
    <defs></defs>
    <g id="Website" stroke="none" stroke-width="1" fill="none" fill-rule="evenodd" opacity="0.100000001">
        <g id="Цены" transform="translate(-107.000000, -2220.000000)" fill="#FFFFFF">
            <g id="ic_wood_big" transform="translate(107.000000, 2220.000000)">
                <path d="M197.890411,0 L34.5776256,0 C15.1609589,0 0,31.0093985 0,70.5 C0,109.990602 15.1609589,141 34.8436073,141 L198.156393,141 C217.573059,141 233,109.990602 233,70.5 C232.734018,31.0093985 217.307078,0 197.890411,0 L197.890411,0 Z M5.3196347,70.5 C5.3196347,35.25 18.6187215,5.56578947 34.5776256,5.56578947 C50.5365297,5.56578947 63.8356164,35.25 63.8356164,70.5 C63.8356164,105.75 50.5365297,135.434211 34.5776256,135.434211 C18.6187215,135.434211 5.3196347,105.75 5.3196347,70.5 L5.3196347,70.5 Z M197.890411,135.434211 L48.4086758,135.434211 C52.1324201,132.253759 55.3242009,128.013158 58.25,122.977444 L100.009132,122.977444 L100.009132,117.676692 L60.6438356,117.676692 C62.5057078,113.43609 64.1015982,108.665414 65.4315068,103.629699 L96.8173516,103.629699 L96.8173516,98.3289474 L66.7614155,98.3289474 C68.3573059,90.3778195 69.4212329,81.6315789 69.4212329,72.3552632 L109.850457,72.3552632 L109.850457,67.0545113 L69.4212329,67.0545113 C68.8892694,49.2969925 65.4315068,33.6597744 59.8458904,21.9981203 L124.479452,21.9981203 L124.479452,16.6973684 L56.9200913,16.6973684 C54.260274,12.4567669 51.3344749,8.7462406 48.4086758,6.09586466 L197.890411,6.09586466 C207.465753,6.09586466 216.243151,17.2274436 221.562785,33.6597744 L180.86758,33.6597744 L180.86758,38.9605263 L223.158676,38.9605263 C225.28653,47.4417293 226.616438,56.9830827 227.148402,67.0545113 L169.696347,67.0545113 L169.696347,72.3552632 L227.148402,72.3552632 C227.148402,76.5958647 226.88242,80.5714286 226.350457,84.5469925 L159.589041,84.5469925 L159.589041,89.8477444 L225.818493,89.8477444 C224.222603,100.449248 221.562785,110.255639 217.839041,117.676692 L159.589041,117.676692 L159.589041,122.977444 L214.913242,122.977444 C210.125571,130.928571 204.273973,135.434211 197.890411,135.434211 L197.890411,135.434211 Z" id="Shape"></path>
                <path d="M35.5,18 C22.6428571,18 13,40.79 13,71 C13,101.21 22.6428571,124 35.5,124 C48.3571429,124 58,101.21 58,71 C58,40.79 48.3571429,18 35.5,18 L35.5,18 Z M35.5,118.7 C27.4642857,118.7 18.625,99.09 18.625,71 C18.625,42.91 27.4642857,23.3 35.5,23.3 C43.5357143,23.3 52.375,42.91 52.375,71 C52.6428571,99.09 43.5357143,118.7 35.5,118.7 L35.5,118.7 Z" id="Shape"></path>
                <rect id="Rectangle-path" x="79" y="50" width="70" height="5"></rect>
                <rect id="Rectangle-path" x="80" y="33" width="34" height="5"></rect>
                <rect id="Rectangle-path" x="128" y="33" width="34" height="5"></rect>
                <rect id="Rectangle-path" x="108" y="99" width="34" height="5"></rect>
                <rect id="Rectangle-path" x="155" y="50" width="17" height="5"></rect>
                <rect id="Rectangle-path" x="199" y="99" width="17" height="5"></rect>
                <rect id="Rectangle-path" x="149" y="99" width="17" height="5"></rect>
                <rect id="Rectangle-path" x="112" y="84" width="17" height="5"></rect>
                <rect id="Rectangle-path" x="149" y="16" width="61" height="5"></rect>
                <rect id="Rectangle-path" x="120" y="67" width="42" height="5"></rect>
                <rect id="Rectangle-path" x="111" y="117" width="42" height="5"></rect>
            </g>
        </g>
    </g>
</svg>