<?xml version="1.0" encoding="UTF-8" standalone="no"?>
<svg width="88px" height="51px" viewBox="0 0 88 51" version="1.1" xmlns="http://www.w3.org/2000/svg" xmlns:xlink="http://www.w3.org/1999/xlink">
    <!-- Generator: Sketch 39.1 (31720) - http://www.bohemiancoding.com/sketch -->
    <title>ic_20</title>
    <desc>Created with Sketch.</desc>
    <defs></defs>
    <g id="Website" stroke="none" stroke-width="1" fill="none" fill-rule="evenodd">
        <g id="Главная" transform="translate(-1113.000000, -2282.000000)" stroke="#D79668" stroke-width="2">
            <g id="ic_20" transform="translate(1108.000000, 2257.000000)">
                <path d="M47.18,73.39 L47.18,61.07 L31.99,61.07 C43.12,53.72 46.76,48.47 46.76,42.1 C46.76,32.72 38.85,26 26.74,26 C20.23,26 12.39,28.17 7,33.91 L14.7,43.29 C18.27,40.28 22.05,38.46 27.02,38.46 C30.03,38.46 32.41,39.86 32.41,42.1 C32.41,45.6 30.38,47.35 9.03,62.4 L9.03,73.39 L47.18,73.39 Z M71.05,74.23 C84.98,74.23 91.77,62.75 91.77,50.08 C91.77,37.41 84.98,26 71.05,26 C57.12,26 50.33,37.41 50.33,50.08 C50.33,62.75 57.12,74.23 71.05,74.23 L71.05,74.23 Z M71.05,61.77 C66.57,61.77 64.54,57.99 64.54,50.08 C64.54,42.17 66.57,38.46 71.05,38.46 C75.53,38.46 77.56,42.17 77.56,50.08 C77.56,57.99 75.53,61.77 71.05,61.77 L71.05,61.77 Z" id="20"></path>
            </g>
        </g>
    </g>
</svg>