<?xml version="1.0" encoding="UTF-8" standalone="no"?>
<svg width="32px" height="32px" viewBox="0 0 32 32" version="1.1" xmlns="http://www.w3.org/2000/svg" xmlns:xlink="http://www.w3.org/1999/xlink">
    <!-- Generator: Sketch 39.1 (31720) - http://www.bohemiancoding.com/sketch -->
    <title>ic_phone</title>
    <desc>Created with Sketch.</desc>
    <defs></defs>
    <g id="Website" stroke="none" stroke-width="1" fill="none" fill-rule="evenodd">
        <g id="Главная" transform="translate(-737.000000, -35.000000)">
            <g id="Top-area" transform="translate(-33.000000, 0.000000)">
                <g id="Main-menu" transform="translate(183.000000, 0.000000)">
                    <g id="phone" transform="translate(588.000000, 36.000000)">
                        <g id="ic_phone">
                            <circle id="Oval-4" stroke="#FFFFFF" stroke-width="2" opacity="0.200000003" cx="15" cy="15" r="15"></circle>
                            <path d="M10.77825,7.34475 C11.6835,7.17375 12.27675,8.1945 12.72825,8.89875 C13.16775,9.58275 13.7085,10.38525 13.49025,11.2755 C13.36875,11.775 12.91725,12.04725 12.576,12.342 C12.23925,12.633 11.72625,12.9 11.60175,13.347 C11.3985,14.07225 11.84325,14.8335 12.1185,15.267 C12.744,16.2465 13.5,17.12925 14.46525,17.9175 C14.9325,18.3 15.58125,18.81075 16.2315,18.6795 C17.20275,18.483 17.45925,17.28525 18.51675,17.1255 C19.52325,16.97325 20.20425,17.703 20.77275,18.192 C21.32025,18.66525 22.20375,19.27125 22.14375,20.082 C22.1085,20.54775 21.735,20.8365 21.411,21.11775 C21.08175,21.405 20.793,21.7275 20.4675,21.93975 C19.67925,22.45425 18.7125,22.70625 17.6025,22.67175 C16.51425,22.638 15.64725,22.26825 14.8605,21.849 C13.32225,21.0285 12.1065,19.87425 10.96125,18.588 C9.83475,17.3235 8.7945,15.8265 8.21925,14.17125 C7.5015,12.10425 7.881,9.981 9.04275,8.6565 C9.23925,8.4315 9.54975,8.19675 9.834,7.95525 C10.1175,7.713 10.38,7.41975 10.77825,7.34475 L10.77825,7.34475 Z" id="Shape" fill="#FFFFFF"></path>
                        </g>
                    </g>
                </g>
            </g>
        </g>
    </g>
</svg>