<?xml version="1.0" encoding="UTF-8" standalone="no"?>
<svg width="70px" height="61px" viewBox="0 0 70 61" version="1.1" xmlns="http://www.w3.org/2000/svg" xmlns:xlink="http://www.w3.org/1999/xlink">
    <!-- Generator: Sketch 39.1 (31720) - http://www.bohemiancoding.com/sketch -->
    <title>ic_delivery</title>
    <desc>Created with Sketch.</desc>
    <defs></defs>
    <g id="Website" stroke="none" stroke-width="1" fill="none" fill-rule="evenodd">
        <g id="Главная" transform="translate(-1122.000000, -1564.000000)" fill="#D79668">
            <g id="ic_delivery" transform="translate(1108.000000, 1543.000000)">
                <path d="M60.6666667,80.5 C60.6666667,81.144 60.144,81.6666667 59.5,81.6666667 L57.1666667,81.6666667 C56.5226667,81.6666667 56,81.144 56,80.5 C56,79.856 56.5226667,79.3333333 57.1666667,79.3333333 L59.5,79.3333333 C60.144,79.3333333 60.6666667,79.856 60.6666667,80.5 M84,80.5 C84,81.144 83.4773333,81.6666667 82.8333333,81.6666667 L64.1666667,81.6666667 C63.5226667,81.6666667 63,81.144 63,80.5 C63,79.856 63.5226667,79.3333333 64.1666667,79.3333333 L82.8333333,79.3333333 C83.4773333,79.3333333 84,79.856 84,80.5 M51.3333333,80.5 C51.3333333,81.144 50.8106667,81.6666667 50.1666667,81.6666667 L38.5,81.6666667 C37.856,81.6666667 37.3333333,81.144 37.3333333,80.5 C37.3333333,79.856 37.856,79.3333333 38.5,79.3333333 L50.1666667,79.3333333 C50.8106667,79.3333333 51.3333333,79.856 51.3333333,80.5 M32.6666667,80.5 C32.6666667,81.144 32.144,81.6666667 31.5,81.6666667 L15.1666667,81.6666667 C14.5226667,81.6666667 14,81.144 14,80.5 C14,79.856 14.5226667,79.3333333 15.1666667,79.3333333 L31.5,79.3333333 C32.144,79.3333333 32.6666667,79.856 32.6666667,80.5 M16.3333333,57.1666667 C16.3333333,56.5226667 16.856,56 17.5,56 L20.8133333,56 L20.3198333,52.6715 C20.2253333,52.0345 20.6651667,51.4406667 21.3021667,51.3461667 C21.9438333,51.2563333 22.5341667,51.6915 22.6286667,52.3285 L23.1735,56 L31.5,56 C32.144,56 32.6666667,56.5226667 32.6666667,57.1666667 C32.6666667,57.8106667 32.144,58.3333333 31.5,58.3333333 L17.5,58.3333333 C16.856,58.3333333 16.3333333,57.8106667 16.3333333,57.1666667 M17.5,46.6666667 L19.3188333,46.6666667 L18.8253333,43.3381667 C18.7308333,42.7011667 19.1706667,42.1073333 19.8076667,42.0128333 C20.4493333,41.9241667 21.0396667,42.3581667 21.133,42.9951667 L21.679,46.6666667 L31.5,46.6666667 C32.144,46.6666667 32.6666667,47.1893333 32.6666667,47.8333333 C32.6666667,48.4773333 32.144,49 31.5,49 L17.5,49 C16.856,49 16.3333333,48.4773333 16.3333333,47.8333333 C16.3333333,47.1893333 16.856,46.6666667 17.5,46.6666667 M31.5,70 C30.8571667,70 30.3333333,69.4761667 30.3333333,68.8333333 C30.3333333,68.1905 30.8571667,67.6666667 31.5,67.6666667 C32.1428333,67.6666667 32.6666667,68.1905 32.6666667,68.8333333 C32.6666667,69.4761667 32.1428333,70 31.5,70 M31.5,65.3333333 C29.5703333,65.3333333 28,66.9036667 28,68.8333333 C28,70.763 29.5703333,72.3333333 31.5,72.3333333 C33.4296667,72.3333333 35,70.763 35,68.8333333 C35,66.9036667 33.4296667,65.3333333 31.5,65.3333333 M71.1666667,70 C70.5238333,70 70,69.4761667 70,68.8333333 C70,68.1905 70.5238333,67.6666667 71.1666667,67.6666667 C71.8095,67.6666667 72.3333333,68.1905 72.3333333,68.8333333 C72.3333333,69.4761667 71.8095,70 71.1666667,70 M71.1666667,65.3333333 C69.237,65.3333333 67.6666667,66.9036667 67.6666667,68.8333333 C67.6666667,70.763 69.237,72.3333333 71.1666667,72.3333333 C73.0963333,72.3333333 74.6666667,70.763 74.6666667,68.8333333 C74.6666667,66.9036667 73.0963333,65.3333333 71.1666667,65.3333333 M71.1666667,74.6666667 C67.9501667,74.6666667 65.3333333,72.0498333 65.3333333,68.8333333 C65.3333333,65.6168333 67.9501667,63 71.1666667,63 C74.3831667,63 77,65.6168333 77,68.8333333 C77,72.0498333 74.3831667,74.6666667 71.1666667,74.6666667 M82.4915,50.5085 L79.2936667,47.3106667 L78.1666667,33.8333333 C78.1666667,30.6168333 75.5498333,28 72.3333333,28 L64.1666667,28 C63.5226667,28 63,28.5226667 63,29.1666667 C63,29.8106667 63.5226667,30.3333333 64.1666667,30.3333333 L72.3333333,30.3333333 C74.2303333,30.3333333 75.8333333,31.9363333 75.8368333,33.9301667 L76.8985,46.6666667 L73.0543333,46.6666667 L74.5441667,43.6881667 C74.8323333,43.1118333 74.5978333,42.4118333 74.0215,42.1225 C73.444,41.8343333 72.7451667,42.0688333 72.4558333,42.6451667 L70.4456667,46.6666667 L64.1666667,46.6666667 C63.5226667,46.6666667 63,47.1893333 63,47.8333333 C63,48.4773333 63.5226667,49 64.1666667,49 L77.6836667,49 L80.8418333,52.1581667 C81.5068333,52.8231667 81.6643333,54.3526667 81.6666667,54.8333333 L81.6666667,67.6666667 L79.24,67.6666667 C78.6718333,63.7151667 75.2733333,60.6666667 71.1666667,60.6666667 C66.6633333,60.6666667 63,64.33 63,68.8333333 C63,73.3366667 66.6633333,77 71.1666667,77 C75.2733333,77 78.6718333,73.9515 79.24,70 L82.8333333,70 C83.4773333,70 84,69.4773333 84,68.8333333 L84,54.8333333 C84,54.5451667 83.958,51.9738333 82.4915,50.5085 M31.5,74.6666667 C28.2835,74.6666667 25.6666667,72.0498333 25.6666667,68.8333333 C25.6666667,65.6168333 28.2835,63 31.5,63 C34.7165,63 37.3333333,65.6168333 37.3333333,68.8333333 C37.3333333,72.0498333 34.7165,74.6666667 31.5,74.6666667 M59.5,21 L22.1666667,21 C18.9501667,21 16.3333333,23.6168333 16.3333333,26.8333333 C16.3333333,26.8916667 16.338,26.9488333 16.3461667,27.006 L17.8955,37.3333333 L15.1666667,37.3333333 C14.5226667,37.3333333 14,37.856 14,38.5 C14,39.144 14.5226667,39.6666667 15.1666667,39.6666667 L31.5,39.6666667 C32.144,39.6666667 32.6666667,39.144 32.6666667,38.5 C32.6666667,37.856 32.144,37.3333333 31.5,37.3333333 L20.2545,37.3333333 L18.6678333,26.7528333 C18.711,24.8605 20.2638333,23.3333333 22.1666667,23.3333333 L58.3333333,23.3333333 L58.3333333,67.6666667 L39.5733333,67.6666667 C39.0051667,63.7151667 35.6066667,60.6666667 31.5,60.6666667 C26.9966667,60.6666667 23.3333333,64.33 23.3333333,68.8333333 C23.3333333,73.3366667 26.9966667,77 31.5,77 C35.6066667,77 39.0051667,73.9515 39.5733333,70 L59.5,70 C60.144,70 60.6666667,69.4773333 60.6666667,68.8333333 L60.6666667,22.1666667 C60.6666667,21.5226667 60.144,21 59.5,21"></path>
            </g>
        </g>
    </g>
</svg>