<?xml version="1.0" encoding="UTF-8" standalone="no"?>
<svg width="70px" height="72px" viewBox="0 0 70 72" version="1.1" xmlns="http://www.w3.org/2000/svg" xmlns:xlink="http://www.w3.org/1999/xlink">
    <!-- Generator: Sketch 39.1 (31720) - http://www.bohemiancoding.com/sketch -->
    <title>ic_furniture</title>
    <desc>Created with Sketch.</desc>
    <defs>
        <rect id="path-1" x="32" y="58" width="2" height="2" rx="1"></rect>
        <mask id="mask-2" maskContentUnits="userSpaceOnUse" maskUnits="objectBoundingBox" x="0" y="0" width="2" height="2" fill="white">
            <use xlink:href="#path-1"></use>
        </mask>
        <rect id="path-3" x="39" y="68" width="22" height="2" rx="1"></rect>
        <mask id="mask-4" maskContentUnits="userSpaceOnUse" maskUnits="objectBoundingBox" x="0" y="0" width="22" height="2" fill="white">
            <use xlink:href="#path-3"></use>
        </mask>
        <rect id="path-5" x="39" y="78" width="22" height="2" rx="1"></rect>
        <mask id="mask-6" maskContentUnits="userSpaceOnUse" maskUnits="objectBoundingBox" x="0" y="0" width="22" height="2" fill="white">
            <use xlink:href="#path-5"></use>
        </mask>
        <rect id="path-7" x="66" y="58" width="2" height="2" rx="1"></rect>
        <mask id="mask-8" maskContentUnits="userSpaceOnUse" maskUnits="objectBoundingBox" x="0" y="0" width="2" height="2" fill="white">
            <use xlink:href="#path-7"></use>
        </mask>
    </defs>
    <g id="Website" stroke="none" stroke-width="1" fill="none" fill-rule="evenodd">
        <g id="Главная" transform="translate(-685.000000, -881.000000)" stroke="#D79668" stroke-width="2">
            <g id="ic_furniture" transform="translate(670.000000, 865.000000)">
                <polygon id="Path-4" points="19 17 19 49 79 49 79 17"></polygon>
                <polygon id="Path-5" points="16 54 16 84 84 84 84 54"></polygon>
                <use id="Rectangle-10" mask="url(#mask-2)" xlink:href="#path-1"></use>
                <use id="Rectangle-10-Copy-2" mask="url(#mask-4)" xlink:href="#path-3"></use>
                <use id="Rectangle-10-Copy-3" mask="url(#mask-6)" xlink:href="#path-5"></use>
                <use id="Rectangle-10-Copy" mask="url(#mask-8)" xlink:href="#path-7"></use>
                <polygon id="Path-5-Copy" points="16 64.0725953 16 74 84 74 84 64"></polygon>
                <path d="M50,54 L50,63.8058101" id="Path-6"></path>
                <path d="M22,84 L22,88" id="Path-7"></path>
                <path d="M78,84 L78,88" id="Path-7-Copy"></path>
            </g>
        </g>
    </g>
</svg>