<?xml version="1.0" encoding="UTF-8" standalone="no"?>
<svg width="80px" height="91px" viewBox="0 0 80 91" version="1.1" xmlns="http://www.w3.org/2000/svg" xmlns:xlink="http://www.w3.org/1999/xlink">
    <!-- Generator: Sketch 39.1 (31720) - http://www.bohemiancoding.com/sketch -->
    <title>ic_guarantee</title>
    <desc>Created with Sketch.</desc>
    <defs></defs>
    <g id="Website" stroke="none" stroke-width="1" fill="none" fill-rule="evenodd">
        <g id="Главная" transform="translate(-826.000000, -2257.000000)" fill="#D79668">
            <g id="ic_guarantee" transform="translate(816.000000, 2252.000000)">
                <g transform="translate(10.000000, 5.000000)">
                    <path d="M0.5164,0.5754 L0.5164,78.9875 L45.9012,78.9875 L45.9012,76.9875 L2.5125,76.9875 L2.5125,2.5754 L64.3602,2.5754 L64.3602,56.5597 L66.3602,56.5697 L66.3602,56.1025391 L66.3602,0.5795 L0.5164,0.5754 Z" id="Shape"></path>
                    <polygon id="Shape" points="13.4813 38.0843 13.4813 40.0843 53.3973 40.0843 53.3973 38.0843 13.4813 38.0843"></polygon>
                    <polygon id="Shape" points="20.9461 61.9632 20.9461 63.9632 45.9324 63.9632 45.9324 61.9632"></polygon>
                    <polygon id="Shape" points="13.4813 46.0432 13.4813 48.0432 53.3973 48.0432 53.3973 46.0432 13.4813 46.0432"></polygon>
                    <polygon id="Shape" points="13.4813 54.0042 13.4813 56.0042 53.3973 56.0042 53.3973 54.0042 13.4813 54.0042"></polygon>
                    <path d="M33.4383,6.9504 C28.8222,6.9504 25.0692,10.7504 25.0692,15.3976 C25.0692,17.3585 25.7428,19.1638 26.8621,20.6007 L22.9637,30.7648 L28.0926,28.6711 L30.5946,33.509 L33.4324,25.6965 L36.4051,33.4933 L38.743,28.6144 L43.9383,30.8996 L39.8758,20.7844 C41.0816,19.3199 41.8074,17.4412 41.8074,15.3976 C41.8074,10.7504 38.0544,6.9504 33.4383,6.9504 L33.4383,6.9504 Z M33.4383,8.9504 C36.9623,8.9504 39.8074,11.8202 39.8074,15.3976 C39.8074,18.9749 36.9623,21.8429 33.4383,21.8429 C29.9143,21.8429 27.0692,18.9749 27.0692,15.3976 C27.0692,11.8202 29.9143,8.9504 33.4383,8.9504 L33.4383,8.9504 Z M28.4168,22.134 C29.4591,22.9278 30.6854,23.4824 32.0242,23.714 L30.2723,28.5344 L29.0301,26.1301 L26.4852,27.1691 L28.4168,22.134 L28.4168,22.134 Z M38.3094,22.2492 L40.2547,27.0949 L37.7762,26.0031 L36.6141,28.4269 L34.8192,23.7179 C36.1061,23.5006 37.2915,22.9889 38.3094,22.2492 L38.3094,22.2492 Z" id="Shape"></path>
                    <path d="M65.1836,62 C57.3616,62 51,68.3635 51,76.1856 C51,84.0076 57.3616,90.3691 65.1836,90.3691 C73.0056,90.3691 79.3692,84.0076 79.3692,76.1856 C79.3692,68.3635 73.0056,62 65.1836,62 L65.1836,62 Z M65.1836,64 C71.9248,64 77.3692,69.4444 77.3692,76.1856 C77.3692,82.9267 71.9248,88.3691 65.1836,88.3691 C58.4424,88.3691 53,82.9267 53,76.1856 C53,69.4444 58.4424,64 65.1836,64 L65.1836,64 Z" id="Shape"></path>
                    <path d="M64.9628557,81.4598336 C63.2684194,81.4598336 61.9474807,80.945996 61,79.9183053 L62.2181834,78.3918163 C62.9350603,79.1437851 63.8449289,79.5197639 64.9478164,79.5197639 C65.5343521,79.5147507 65.9980592,79.3668657 66.3389518,79.0761045 C66.6798443,78.7853432 66.8527945,78.416884 66.8578076,77.9707159 C66.8578076,77.5245477 66.692377,77.1611016 66.3615107,76.8803666 C66.0306444,76.5996316 65.5794699,76.4617727 65.0079736,76.4667858 C64.1557423,76.4667858 63.4363696,76.7450101 62.849834,77.301467 L61.323345,76.8954059 L61.323345,71 L68.376777,71 L68.376777,72.9250305 L63.5115632,72.9250305 L63.5115632,75.4365937 C64.0880726,74.8600843 64.8375236,74.5718339 65.7599387,74.5718339 C66.6873669,74.5718339 67.4719092,74.8751235 68.1135892,75.4817116 C68.7552693,76.0933129 69.0761045,76.9204662 69.0761045,77.9631962 C69.0761045,79.0059263 68.7001257,79.8481187 67.9481569,80.4897987 C67.1961881,81.1314788 66.2010977,81.4548205 64.9628557,81.4598336 L64.9628557,81.4598336 Z" id="5"></path>
                </g>
            </g>
        </g>
    </g>
</svg>