<?xml version="1.0" encoding="UTF-8" standalone="no"?>
<svg width="80px" height="91px" viewBox="0 0 80 91" version="1.1" xmlns="http://www.w3.org/2000/svg" xmlns:xlink="http://www.w3.org/1999/xlink">
    <!-- Generator: Sketch 39.1 (31720) - http://www.bohemiancoding.com/sketch -->
    <title>ic_guarantee</title>
    <desc>Created with Sketch.</desc>
    <defs></defs>
    <g id="Website" stroke="none" stroke-width="1" fill="none" fill-rule="evenodd">
        <g id="Главная" transform="translate(-826.000000, -2257.000000)">
            <g id="ic_guarantee" transform="translate(816.000000, 2252.000000)">
                <g transform="translate(10.000000, 5.000000)" id="Shape" fill="#D79668">
                    <path d="M0.5164,0.5754 L0.5164,78.9875 L48.9012,78.9875 L48.9012,76.9875 L2.5125,76.9875 L2.5125,2.5754 L64.3602,2.5754 L64.3602,59.5597 L66.3602,59.5697 L66.3602,0.5795 L0.5164,0.5754 Z"></path>
                    <polygon points="13.4813 38.0843 13.4813 40.0843 53.3973 40.0843 53.3973 38.0843 13.4813 38.0843"></polygon>
                    <polygon points="20.9461 61.9632 20.9461 63.9632 45.9324 63.9632 45.9324 61.9632"></polygon>
                    <polygon points="13.4813 46.0432 13.4813 48.0432 53.3973 48.0432 53.3973 46.0432 13.4813 46.0432"></polygon>
                    <polygon points="13.4813 54.0042 13.4813 56.0042 53.3973 56.0042 53.3973 54.0042 13.4813 54.0042"></polygon>
                    <path d="M33.4383,6.9504 C28.8222,6.9504 25.0692,10.7504 25.0692,15.3976 C25.0692,17.3585 25.7428,19.1638 26.8621,20.6007 L22.9637,30.7648 L28.0926,28.6711 L30.5946,33.509 L33.4324,25.6965 L36.4051,33.4933 L38.743,28.6144 L43.9383,30.8996 L39.8758,20.7844 C41.0816,19.3199 41.8074,17.4412 41.8074,15.3976 C41.8074,10.7504 38.0544,6.9504 33.4383,6.9504 L33.4383,6.9504 Z M33.4383,8.9504 C36.9623,8.9504 39.8074,11.8202 39.8074,15.3976 C39.8074,18.9749 36.9623,21.8429 33.4383,21.8429 C29.9143,21.8429 27.0692,18.9749 27.0692,15.3976 C27.0692,11.8202 29.9143,8.9504 33.4383,8.9504 L33.4383,8.9504 Z M28.4168,22.134 C29.4591,22.9278 30.6854,23.4824 32.0242,23.714 L30.2723,28.5344 L29.0301,26.1301 L26.4852,27.1691 L28.4168,22.134 L28.4168,22.134 Z M38.3094,22.2492 L40.2547,27.0949 L37.7762,26.0031 L36.6141,28.4269 L34.8192,23.7179 C36.1061,23.5006 37.2915,22.9889 38.3094,22.2492 L38.3094,22.2492 Z"></path>
                    <path d="M65.298,61.7798 C57.476,61.7798 51.1144,68.1433 51.1144,75.9654 C51.1144,83.7874 57.476,90.1489 65.298,90.1489 C73.12,90.1489 79.4836,83.7874 79.4836,75.9654 C79.4836,68.1433 73.12,61.7798 65.298,61.7798 L65.298,61.7798 Z M65.298,63.7798 C72.0392,63.7798 77.4836,69.2242 77.4836,75.9654 C77.4836,82.7065 72.0392,88.1489 65.298,88.1489 C58.5568,88.1489 53.1144,82.7065 53.1144,75.9654 C53.1144,69.2242 58.5568,63.7798 65.298,63.7798 L65.298,63.7798 Z"></path>
                </g>
                <path d="M79.79,86 L79.79,83.36 L76.535,83.36 C78.92,81.785 79.7,80.66 79.7,79.295 C79.7,77.285 78.005,75.845 75.41,75.845 C74.015,75.845 72.335,76.31 71.18,77.54 L72.83,79.55 C73.595,78.905 74.405,78.515 75.47,78.515 C76.115,78.515 76.625,78.815 76.625,79.295 C76.625,80.045 76.19,80.42 71.615,83.645 L71.615,86 L79.79,86 Z" id="2" fill="#BF8C68"></path>
            </g>
        </g>
    </g>
</svg>