<?xml version="1.0" encoding="UTF-8" standalone="no"?>
<svg width="59px" height="59px" viewBox="0 0 59 59" version="1.1" xmlns="http://www.w3.org/2000/svg" xmlns:xlink="http://www.w3.org/1999/xlink">
    <!-- Generator: Sketch 39.1 (31720) - http://www.bohemiancoding.com/sketch -->
    <title>ic_individual_project</title>
    <desc>Created with Sketch.</desc>
    <defs></defs>
    <g id="Website" stroke="none" stroke-width="1" fill="none" fill-rule="evenodd">
        <g id="Главная" transform="translate(-253.000000, -2273.000000)" fill="#D79668">
            <g id="ic_individual_project" transform="translate(232.000000, 2252.000000)">
                <g id="Group-9" transform="translate(21.000000, 21.000000)">
                    <path d="M14,7 C14,3.141 10.859,0 7,0 C3.141,0 0,3.141 0,7 L0,52 L0.003,52 C0.003,52.02 0,52.04 0,52.06 C0,55.887 3.113,59 6.94,59 L59,59 L59,7 L14,7 L14,7 Z M2,7 C2,4.579 3.731,2.556 6.02,2.099 C6.072,2.603 6.483,3 7,3 C7.517,3 7.928,2.603 7.98,2.099 C10.269,2.556 12,4.579 12,7 L12,47.105 C10.729,45.807 8.957,45 7,45 C6.757,45 6.518,45.013 6.281,45.037 C6.175,45.048 6.071,45.069 5.966,45.085 C5.838,45.104 5.709,45.119 5.583,45.145 C5.445,45.173 5.312,45.213 5.178,45.249 C5.09,45.273 5,45.291 4.913,45.318 C4.746,45.371 4.584,45.434 4.422,45.499 C4.373,45.519 4.321,45.534 4.272,45.555 C4.073,45.639 3.88,45.735 3.69,45.837 C3.682,45.841 3.673,45.845 3.665,45.849 C3.049,46.184 2.487,46.608 2,47.105 L2,7 L2,7 Z M57,57 L6.94,57 C4.216,57 2,54.784 2,52 C2,49.243 4.243,47 7,47 C9.757,47 12,49.243 12,52 L14,52 L14,9 L57,9 L57,57 L57,57 Z" id="Shape"></path>
                    <path d="M46.017,21.001 C46.193,21.124 46.394,21.184 46.593,21.184 C46.907,21.184 47.216,21.037 47.411,20.761 C47.729,20.31 47.622,19.686 47.171,19.366 L45.537,18.213 C45.084,17.896 44.462,18.003 44.142,18.453 C43.824,18.904 43.931,19.528 44.382,19.848 L46.017,21.001 L46.017,21.001 Z" id="Shape"></path>
                    <path d="M50.92,24.461 C51.095,24.584 51.296,24.644 51.495,24.644 C51.809,24.644 52.118,24.497 52.313,24.22 C52.631,23.769 52.523,23.145 52.072,22.826 L50.437,21.673 C49.986,21.356 49.363,21.463 49.043,21.914 C48.725,22.365 48.833,22.989 49.284,23.308 L50.92,24.461 L50.92,24.461 Z" id="Shape"></path>
                    <path d="M37,41 C37,41.553 37.447,42 38,42 L40,42 C40.553,42 41,41.553 41,41 C41,40.447 40.553,40 40,40 L38,40 C37.447,40 37,40.447 37,41 L37,41 Z" id="Shape"></path>
                    <path d="M51,27.383 L51,29.383 C51,29.936 51.447,30.383 52,30.383 C52.553,30.383 53,29.936 53,29.383 L53,27.383 C53,26.83 52.553,26.383 52,26.383 C51.447,26.383 51,26.83 51,27.383 L51,27.383 Z" id="Shape"></path>
                    <path d="M41.115,17.541 C41.291,17.664 41.492,17.724 41.691,17.724 C42.005,17.724 42.314,17.577 42.509,17.301 C42.827,16.85 42.72,16.226 42.269,15.906 L40.635,14.753 C40.182,14.436 39.56,14.543 39.24,14.993 C38.922,15.444 39.029,16.068 39.48,16.388 L41.115,17.541 L41.115,17.541 Z" id="Shape"></path>
                    <path d="M43,41 C43,41.553 43.447,42 44,42 L46,42 C46.553,42 47,41.553 47,41 C47,40.447 46.553,40 46,40 L44,40 C43.447,40 43,40.447 43,41 L43,41 Z" id="Shape"></path>
                    <path d="M29,41 C29,40.447 28.553,40 28,40 L26,40 C25.447,40 25,40.447 25,41 C25,41.553 25.447,42 26,42 L28,42 C28.553,42 29,41.553 29,41 L29,41 Z" id="Shape"></path>
                    <path d="M52,36.383 C52.553,36.383 53,35.936 53,35.383 L53,33.383 C53,32.83 52.553,32.383 52,32.383 C51.447,32.383 51,32.83 51,33.383 L51,35.383 C51,35.936 51.447,36.383 52,36.383 L52,36.383 Z" id="Shape"></path>
                    <path d="M36.213,14.081 C36.389,14.204 36.59,14.264 36.789,14.264 C37.103,14.264 37.412,14.117 37.607,13.841 C37.925,13.39 37.818,12.766 37.367,12.446 L35.733,11.293 C35.28,10.977 34.658,11.084 34.338,11.533 C34.02,11.984 34.127,12.608 34.578,12.928 L36.213,14.081 L36.213,14.081 Z" id="Shape"></path>
                    <path d="M51,40 L50,40 C49.447,40 49,40.447 49,41 C49,41.553 49.447,42 50,42 L53,42 L53,39.383 C53,38.83 52.553,38.383 52,38.383 C51.447,38.383 51,38.83 51,39.383 L51,40 L51,40 Z" id="Shape"></path>
                    <path d="M20,42 L22,42 C22.553,42 23,41.553 23,41 C23,40.447 22.553,40 22,40 L20,40 C19.447,40 19,40.447 19,41 C19,41.553 19.447,42 20,42 L20,42 Z" id="Shape"></path>
                    <path d="M18,28 C18.553,28 19,27.553 19,27 L19,25 C19,24.447 18.553,24 18,24 C17.447,24 17,24.447 17,25 L17,27 C17,27.553 17.447,28 18,28 L18,28 Z" id="Shape"></path>
                    <path d="M20.452,23.27 C20.651,23.27 20.852,23.21 21.028,23.087 L22.662,21.934 C23.113,21.615 23.221,20.991 22.902,20.539 C22.584,20.089 21.961,19.981 21.507,20.299 L19.873,21.452 C19.422,21.771 19.314,22.395 19.633,22.847 C19.829,23.122 20.138,23.27 20.452,23.27 L20.452,23.27 Z" id="Shape"></path>
                    <path d="M25.354,19.81 C25.553,19.81 25.754,19.75 25.93,19.627 L27.564,18.474 C28.015,18.155 28.123,17.531 27.804,17.079 C27.485,16.63 26.863,16.522 26.409,16.839 L24.775,17.992 C24.324,18.311 24.216,18.935 24.535,19.387 C24.73,19.662 25.039,19.81 25.354,19.81 L25.354,19.81 Z" id="Shape"></path>
                    <path d="M18,34 C18.553,34 19,33.553 19,33 L19,31 C19,30.447 18.553,30 18,30 C17.447,30 17,30.447 17,31 L17,33 C17,33.553 17.447,34 18,34 L18,34 Z" id="Shape"></path>
                    <path d="M30.256,16.35 C30.455,16.35 30.656,16.29 30.832,16.167 L32.466,15.014 C32.917,14.695 33.025,14.071 32.706,13.619 C32.387,13.17 31.766,13.06 31.311,13.379 L29.677,14.532 C29.226,14.851 29.118,15.475 29.437,15.927 C29.633,16.202 29.941,16.35 30.256,16.35 L30.256,16.35 Z" id="Shape"></path>
                    <path d="M31,41 C31,41.553 31.447,42 32,42 L34,42 C34.553,42 35,41.553 35,41 C35,40.447 34.553,40 34,40 L32,40 C31.447,40 31,40.447 31,41 L31,41 Z" id="Shape"></path>
                    <path d="M18,40 C18.553,40 19,39.553 19,39 L19,37 C19,36.447 18.553,36 18,36 C17.447,36 17,36.447 17,37 L17,39 C17,39.553 17.447,40 18,40 L18,40 Z" id="Shape"></path>
                    <path d="M41,54 L54,54 L54,46 L41,46 L41,54 L41,54 Z M43,48 L52,48 L52,52 L43,52 L43,48 L43,48 Z" id="Shape"></path>
                    <path d="M22,30 L22,32 C22,32.553 22.447,33 23,33 C23.553,33 24,32.553 24,32 L24,30 C24,29.447 23.553,29 23,29 C22.447,29 22,29.447 22,30 L22,30 Z" id="Shape"></path>
                    <path d="M31,27 C30.447,27 30,27.447 30,28 L30,30 C30,30.553 30.447,31 31,31 C31.553,31 32,30.553 32,30 L32,28 C32,27.447 31.553,27 31,27 L31,27 Z" id="Shape"></path>
                    <path d="M25,29 L27,29 C27.553,29 28,28.553 28,28 C28,27.447 27.553,27 27,27 L25,27 C24.447,27 24,27.447 24,28 C24,28.553 24.447,29 25,29 L25,29 Z" id="Shape"></path>
                    <path d="M26,36 C26,35.447 25.553,35 25,35 L23,35 C22.447,35 22,35.447 22,36 C22,36.553 22.447,37 23,37 L25,37 C25.553,37 26,36.553 26,36 L26,36 Z" id="Shape"></path>
                    <path d="M29,37 L31,37 C31.553,37 32,36.553 32,36 L32,34 C32,33.447 31.553,33 31,33 C30.447,33 30,33.447 30,34 L30,35 L29,35 C28.447,35 28,35.447 28,36 C28,36.553 28.447,37 29,37 L29,37 Z" id="Shape"></path>
                    <path d="M40,28 C40,28.553 40.447,29 41,29 L43,29 C43.553,29 44,28.553 44,28 C44,27.447 43.553,27 43,27 L41,27 C40.447,27 40,27.447 40,28 L40,28 Z" id="Shape"></path>
                    <path d="M46,28 L46,30 C46,30.553 46.447,31 47,31 C47.553,31 48,30.553 48,30 L48,28 C48,27.447 47.553,27 47,27 C46.447,27 46,27.447 46,28 L46,28 Z" id="Shape"></path>
                    <path d="M47,37 C47.553,37 48,36.553 48,36 L48,34 C48,33.447 47.553,33 47,33 C46.447,33 46,33.447 46,34 L46,35 L45,35 C44.447,35 44,35.447 44,36 C44,36.553 44.447,37 45,37 L47,37 L47,37 Z" id="Shape"></path>
                    <path d="M39,33 C39.553,33 40,32.553 40,32 L40,30 C40,29.447 39.553,29 39,29 C38.447,29 38,29.447 38,30 L38,32 C38,32.553 38.447,33 39,33 L39,33 Z" id="Shape"></path>
                    <path d="M39,37 L41,37 C41.553,37 42,36.553 42,36 C42,35.447 41.553,35 41,35 L39,35 C38.447,35 38,35.447 38,36 C38,36.553 38.447,37 39,37 L39,37 Z" id="Shape"></path>
                    <path d="M38,46 L33,46 C32.447,46 32,46.447 32,47 C32,47.553 32.447,48 33,48 L38,48 C38.553,48 39,47.553 39,47 C39,46.447 38.553,46 38,46 L38,46 Z" id="Shape"></path>
                    <path d="M38,49 L31,49 C30.447,49 30,49.447 30,50 C30,50.553 30.447,51 31,51 L38,51 C38.553,51 39,50.553 39,50 C39,49.447 38.553,49 38,49 L38,49 Z" id="Shape"></path>
                    <path d="M38,52 L28,52 C27.447,52 27,52.447 27,53 C27,53.553 27.447,54 28,54 L38,54 C38.553,54 39,53.553 39,53 C39,52.447 38.553,52 38,52 L38,52 Z" id="Shape"></path>
                    <circle id="Oval" cx="4" cy="5" r="1"></circle>
                    <circle id="Oval" cx="10" cy="5" r="1"></circle>
                    <circle id="Oval" cx="7" cy="8" r="1"></circle>
                    <circle id="Oval" cx="4" cy="11" r="1"></circle>
                    <circle id="Oval" cx="10" cy="11" r="1"></circle>
                    <circle id="Oval" cx="4" cy="17" r="1"></circle>
                    <circle id="Oval" cx="10" cy="17" r="1"></circle>
                    <circle id="Oval" cx="7" cy="14" r="1"></circle>
                    <circle id="Oval" cx="7" cy="20" r="1"></circle>
                    <circle id="Oval" cx="4" cy="23" r="1"></circle>
                    <circle id="Oval" cx="10" cy="23" r="1"></circle>
                    <circle id="Oval" cx="4" cy="29" r="1"></circle>
                    <circle id="Oval" cx="10" cy="29" r="1"></circle>
                    <circle id="Oval" cx="7" cy="26" r="1"></circle>
                    <circle id="Oval" cx="7" cy="32" r="1"></circle>
                    <circle id="Oval" cx="4" cy="35" r="1"></circle>
                    <circle id="Oval" cx="10" cy="35" r="1"></circle>
                    <circle id="Oval" cx="4" cy="41" r="1"></circle>
                    <circle id="Oval" cx="10" cy="41" r="1"></circle>
                    <circle id="Oval" cx="7" cy="38" r="1"></circle>
                    <circle id="Oval" cx="7" cy="44" r="1"></circle>
                </g>
            </g>
        </g>
    </g>
</svg>