<?xml version="1.0" encoding="UTF-8" standalone="no"?>
<svg width="32px" height="32px" viewBox="0 0 32 32" version="1.1" xmlns="http://www.w3.org/2000/svg" xmlns:xlink="http://www.w3.org/1999/xlink">
    <!-- Generator: Sketch 39.1 (31720) - http://www.bohemiancoding.com/sketch -->
    <title>ic_location</title>
    <desc>Created with Sketch.</desc>
    <defs></defs>
    <g id="Symbols" stroke="none" stroke-width="1" fill="none" fill-rule="evenodd">
        <g id="Footer" transform="translate(-628.000000, -149.000000)">
            <g id="location">
                <g transform="translate(629.000000, 150.000000)">
                    <g id="ic_location">
                        <circle id="Oval-3" stroke="#4F5355" stroke-width="2" opacity="0.199999988" cx="15" cy="15" r="15"></circle>
                        <path d="M18.2024908,13.42625 C18.2024908,14.9241071 16.9789392,16.1393214 15.4696164,16.1393214 C13.9600788,16.1393214 12.736742,14.9241071 12.736742,13.42625 C12.736742,11.9279643 13.9602936,10.7131786 15.4696164,10.7131786 C16.9792615,10.7130714 18.2024908,11.9278571 18.2024908,13.42625 M21.0379636,13.42625 C21.0379636,10.4293571 18.5909677,8 15.5721073,8 C12.5534617,8 10.106251,10.4293571 10.106251,13.42625 C10.106251,14.7438929 10.5798146,15.9520357 11.3667595,16.8917857 L15.5768343,22.9221071 L19.8484681,16.8038214 C20.0018821,16.6132143 20.1424041,16.4123214 20.2691748,16.2011429 L20.3123627,16.1396429 L20.3052722,16.1396429 C20.770456,15.341 21.0379636,14.4150714 21.0379636,13.42625" id="Shape" fill="#4F5355"></path>
                    </g>
                </g>
            </g>
        </g>
    </g>
</svg>