<?xml version="1.0" encoding="UTF-8" standalone="no"?>
<svg width="80px" height="59px" viewBox="0 0 80 59" version="1.1" xmlns="http://www.w3.org/2000/svg" xmlns:xlink="http://www.w3.org/1999/xlink">
    <!-- Generator: Sketch 39.1 (31720) - http://www.bohemiancoding.com/sketch -->
    <title>ic_manufacture</title>
    <desc>Created with Sketch.</desc>
    <defs></defs>
    <g id="Website" stroke="none" stroke-width="1" fill="none" fill-rule="evenodd">
        <g id="Главная" transform="translate(-826.000000, -1564.000000)" fill="#D79668">
            <g id="ic_manufacture" transform="translate(816.000000, 1543.000000)">
                <g id="ic_furniture" transform="translate(10.000000, 21.000000)">
                    <path d="M77.3333333,2.66666667 L77.3333333,56 L54.6666667,56 L54.6666667,2.66666667 L77.3333333,2.66666667 L77.3333333,2.66666667 Z M52,1.33333333 L52,57.3333333 C52,58.0697129 52.5969537,58.6666667 53.3333333,58.6666667 L78.6666667,58.6666667 C79.4030463,58.6666667 80,58.0697129 80,57.3333333 L80,1.33333333 C80,0.596953667 79.4030463,0 78.6666667,0 L53.3333333,0 C52.5969537,0 52,0.596953667 52,1.33333333 L52,1.33333333 Z" id="Shape"></path>
                    <path d="M53.3333333,56 L2.66666667,56 L2.66666667,34.6666667 L78.6666667,34.6666667 C79.4030463,34.6666667 80,34.0697129 80,33.3333333 C80,32.5969537 79.4030463,32 78.6666667,32 L1.33333333,32 C0.596953667,32 0,32.5969537 0,33.3333333 L0,57.3333333 C0,58.0697129 0.596953667,58.6666667 1.33333333,58.6666667 L53.3333333,58.6666667 C54.0697129,58.6666667 54.6666667,58.0697129 54.6666667,57.3333333 C54.6666667,56.5969537 54.0697129,56 53.3333333,56 L53.3333333,56 L53.3333333,56 Z" id="Shape"></path>
                    <rect id="Rectangle-path" x="33.3333333" y="38.6666667" width="5.33333333" height="2.66666667" rx="1"></rect>
                    <rect id="Rectangle-path" x="58.6666667" y="25.3333333" width="5.33333333" height="2.66666667" rx="1"></rect>
                    <rect id="Rectangle-path" x="58.6666667" y="38.6666667" width="5.33333333" height="2.66666667" rx="1"></rect>
                    <path d="M27.3333333,44 L2,44 C1.26362033,44 0.666666667,44.5969537 0.666666667,45.3333333 C0.666666667,46.0697129 1.26362033,46.6666667 2,46.6666667 L27.3333333,46.6666667 C28.0697129,46.6666667 28.6666667,46.0697129 28.6666667,45.3333333 C28.6666667,44.5969537 28.0697129,44 27.3333333,44 L27.3333333,44 L27.3333333,44 Z" id="Shape"></path>
                    <rect id="Rectangle-path" x="12" y="49.3333333" width="5.33333333" height="2.66666667" rx="1"></rect>
                    <rect id="Rectangle-path" x="12" y="37.3333333" width="5.33333333" height="2.66666667" rx="1"></rect>
                    <path d="M29.3333333,57.3333333 L29.3333333,25.3277683 C29.3333333,23.1243128 31.1275752,21.3333333 33.3333333,21.3333333 C35.5389296,21.3333333 37.3333333,23.1281977 37.3333333,25.3277683 L40,25.3277683 C40,21.6555916 37.0118421,18.6666667 33.3333333,18.6666667 C29.6559012,18.6666667 26.6666667,21.650466 26.6666667,25.3277683 L26.6666667,57.3333333 L29.3333333,57.3333333 L29.3333333,57.3333333 L29.3333333,57.3333333 Z" id="Shape"></path>
                    <rect id="Rectangle-path" x="16" y="28" width="8" height="2.66666667" rx="1"></rect>
                    <rect id="Rectangle-path" x="5.33333333" y="28" width="8" height="2.66666667" rx="1"></rect>
                </g>
            </g>
        </g>
    </g>
</svg>