<?xml version="1.0" encoding="UTF-8" standalone="no"?>
<svg width="80px" height="57px" viewBox="0 0 80 57" version="1.1" xmlns="http://www.w3.org/2000/svg" xmlns:xlink="http://www.w3.org/1999/xlink">
    <!-- Generator: Sketch 39.1 (31720) - http://www.bohemiancoding.com/sketch -->
    <title>ic_measure</title>
    <desc>Created with Sketch.</desc>
    <defs></defs>
    <g id="Website" stroke="none" stroke-width="1" fill="none" fill-rule="evenodd">
        <g id="Главная" transform="translate(-534.000000, -1561.000000)" fill="#D79668">
            <g id="ic_measure" transform="translate(523.000000, 1543.000000)">
                <g transform="translate(11.000000, 18.000000)">
                    <path d="M25.4468085,8.42553191 C16.1702128,8.42553191 8.59574468,16 8.59574468,25.2765957 C8.59574468,34.5531915 16.1702128,42.0425532 25.4468085,42.0425532 C34.7234043,42.0425532 42.2978723,34.4680851 42.2978723,25.1914894 C42.2978723,15.9148936 34.7234043,8.42553191 25.4468085,8.42553191 L25.4468085,8.42553191 Z M25.4468085,39.4893617 C17.6170213,39.4893617 11.1489362,33.106383 11.1489362,25.1914894 C11.1489362,17.2765957 17.5319149,10.893617 25.4468085,10.893617 C33.2765957,10.893617 39.7446809,17.2765957 39.7446809,25.1914894 C39.7446809,33.106383 33.3617021,39.4893617 25.4468085,39.4893617 L25.4468085,39.4893617 Z" id="Shape"></path>
                    <path d="M77.6170213,44.2553191 L75.7446809,44.2553191 L75.5744681,44.2553191 L50.4680851,44.2553191 L50.4680851,40.7659574 L51.9148936,40.7659574 C53.0212766,40.7659574 53.8723404,39.9148936 53.8723404,38.8085106 L53.8723404,25.2765957 C53.8723404,24.1702128 53.0212766,23.3191489 51.9148936,23.3191489 L50.3829787,23.3191489 C49.3617021,10.4680851 38.5531915,0.340425532 25.4468085,0.340425532 C11.6595745,0.340425532 0.425531915,11.5744681 0.425531915,25.3617021 C0.425531915,39.1489362 11.6595745,50.3829787 25.4468085,50.3829787 L49.1914894,50.3829787 L49.5319149,50.3829787 L49.9574468,50.3829787 L73.6170213,50.3829787 L73.6170213,54.4680851 C73.6170213,55.5744681 74.4680851,56.4255319 75.5744681,56.4255319 L77.6170213,56.4255319 C78.7234043,56.4255319 79.5744681,55.5744681 79.5744681,54.4680851 L79.5744681,46.3829787 C79.5744681,45.1914894 78.7234043,44.2553191 77.6170213,44.2553191 L77.6170213,44.2553191 Z M51.3191489,38.212766 L50.4680851,38.212766 L50.4680851,25.787234 L51.3191489,25.787234 L51.3191489,38.212766 L51.3191489,38.212766 Z M3.06382979,25.2765957 C3.06382979,12.9361702 13.106383,2.80851064 25.5319149,2.80851064 C37.8723404,2.80851064 47.9148936,12.8510638 48,25.106383 L48,25.1914894 L48,38.7234043 L48,38.893617 L48,46.212766 L48,47.6595745 L25.4468085,47.6595745 C13.106383,47.7446809 3.06382979,37.6170213 3.06382979,25.2765957 L3.06382979,25.2765957 Z M50.4680851,47.7446809 L50.4680851,46.893617 L73.6170213,46.893617 L73.6170213,47.7446809 L50.4680851,47.7446809 L50.4680851,47.7446809 Z M77.0212766,53.787234 L76.1702128,53.787234 L76.1702128,46.8085106 L77.0212766,46.8085106 L77.0212766,53.787234 L77.0212766,53.787234 Z"></path>
                </g>
            </g>
        </g>
    </g>
</svg>