<?xml version="1.0" encoding="UTF-8"?>
<svg width="90px" height="44px" viewBox="0 0 90 44" version="1.1" xmlns="http://www.w3.org/2000/svg" xmlns:xlink="http://www.w3.org/1999/xlink">
    <!-- Generator: Sketch 40.3 (33839) - http://www.bohemiancoding.com/sketch -->
    <title>ic_order_sent</title>
    <desc>Created with Sketch.</desc>
    <defs></defs>
    <g id="Website" stroke="none" stroke-width="1" fill="none" fill-rule="evenodd">
        <g id="Главная.-Поп-ап-Copy" transform="translate(-676.000000, -334.000000)" fill="#D79668">
            <g id="Group-13-Copy" transform="translate(581.000000, 284.000000)">
                <g id="ic_order_sent" transform="translate(95.000000, 50.000000)">
                    <path d="M32.969,5.109 L52.072,25.247 C53.086,26.315 54.537,26.87 55.988,26.87 C57.1,26.87 58.21,26.545 59.12,25.877 L87.209,5.225 C87.64,4.909 87.732,4.304 87.417,3.873 C87.098,3.441 86.49,3.351 86.065,3.666 L57.976,24.318 C56.657,25.286 54.595,25.101 53.472,23.918 L34.369,3.781 C34.003,3.39 33.39,3.379 33.005,3.745 C32.615,4.111 32.601,4.723 32.969,5.109 L32.969,5.109 Z" id="Shape"></path>
                    <path d="M89.119,2.161 C88.347,1.214 87.191,0.693 85.868,0.693 L35.591,0.693 C33.026,0.693 30.517,2.737 29.999,5.251 L23.182,38.359 C22.917,39.637 23.203,40.904 23.963,41.838 C24.735,42.785 25.89,43.306 27.213,43.306 L77.493,43.306 C80.056,43.306 82.565,41.262 83.084,38.748 L89.9,5.641 C90.168,4.344 89.891,3.107 89.119,2.161 L89.119,2.161 Z M88.009,5.251 L81.193,38.357 C80.853,39.992 79.161,41.374 77.494,41.374 L27.214,41.374 C26.482,41.374 25.861,41.106 25.463,40.617 C25.065,40.128 24.927,39.466 25.074,38.749 L31.891,5.641 C32.038,4.925 32.454,4.268 33.005,3.745 C33.714,3.071 34.651,2.626 35.591,2.626 L85.868,2.626 C86.6,2.626 87.222,2.894 87.62,3.383 C88.019,3.87 88.156,4.534 88.009,5.251 L88.009,5.251 Z" id="Shape"></path>
                    <path d="M10.633,7.924 L23.348,7.924 C23.882,7.924 24.315,7.492 24.315,6.958 C24.315,6.424 23.882,5.991 23.348,5.991 L10.633,5.991 C10.099,5.991 9.666,6.424 9.666,6.958 C9.666,7.492 10.099,7.924 10.633,7.924 L10.633,7.924 Z" id="Shape"></path>
                    <path d="M20.771,18.878 L0.967,18.878 C0.433,18.878 0,19.311 0,19.845 C0,20.379 0.433,20.811 0.967,20.811 L20.771,20.811 C21.305,20.811 21.738,20.379 21.738,19.845 C21.738,19.311 21.305,18.878 20.771,18.878 L20.771,18.878 Z" id="Shape"></path>
                    <path d="M17.549,30.476 L7.896,30.476 C7.362,30.476 6.93,30.908 6.93,31.442 C6.93,31.976 7.362,32.409 7.896,32.409 L17.549,32.409 C18.083,32.409 18.516,31.976 18.516,31.442 C18.516,30.908 18.083,30.476 17.549,30.476 L17.549,30.476 Z" id="Shape"></path>
                </g>
            </g>
        </g>
    </g>
</svg>