<?xml version="1.0" encoding="UTF-8" standalone="no"?>
<svg width="80px" height="67px" viewBox="0 0 80 67" version="1.1" xmlns="http://www.w3.org/2000/svg" xmlns:xlink="http://www.w3.org/1999/xlink">
    <!-- Generator: Sketch 39.1 (31720) - http://www.bohemiancoding.com/sketch -->
    <title>ic_old_phone</title>
    <desc>Created with Sketch.</desc>
    <defs></defs>
    <g id="Website" stroke="none" stroke-width="1" fill="none" fill-rule="evenodd">
        <g id="Главная" transform="translate(-241.000000, -1560.000000)" fill="#D79668">
            <g id="ic_old_phone" transform="translate(231.000000, 1543.000000)">
                <path d="M89.9674324,81.6725436 L81.3501393,43.0107645 C81.214462,42.3984315 80.6708603,41.962836 80.0433528,41.962836 L67.9064837,41.962836 L67.9064837,34.7415908 C67.9064837,34.001614 67.3066473,33.4026702 66.5675631,33.4026702 C65.8284789,33.4026702 65.2286425,34.001614 65.2286425,34.7415908 L65.2286425,41.962836 L34.7690911,41.962836 L34.7690911,34.7415908 C34.7690911,34.001614 34.1701473,33.4026702 33.4301705,33.4026702 C32.6901937,33.4026702 32.0912499,34.001614 32.0912499,34.7415908 L32.0912499,41.962836 L19.9543808,41.962836 C19.3268733,41.962836 18.7841642,42.3984315 18.6475943,43.0107645 L10.0320864,81.6725436 C9.94371765,82.0688641 10.0401199,82.4839295 10.2936222,82.8017 C10.5480172,83.1176852 10.9318411,83.3033489 11.3379803,83.3033489 L88.6606459,83.3033489 C89.0667852,83.3033489 89.4515017,83.1185779 89.705004,82.8017 C89.9602915,82.4848221 90.0566938,82.0697567 89.9674324,81.6725436 L89.9674324,81.6725436 Z M13.0089533,80.6255077 L21.0281951,44.6415698 L78.9713237,44.6415698 L86.9914582,80.6255077 L13.0089533,80.6255077 L13.0089533,80.6255077 Z M49.9997594,49.6134284 C42.8204671,49.6134284 36.9792027,55.4538001 36.9792027,62.6330924 C36.9792027,69.8123848 42.8195745,75.6536491 49.9997594,75.6536491 C57.1781591,75.6536491 63.0185309,69.8123848 63.0185309,62.6330924 C63.0185309,55.4538001 57.1781591,49.6134284 49.9997594,49.6134284 L49.9997594,49.6134284 Z M49.9997594,72.9758079 C44.2968502,72.9758079 39.657044,68.3360016 39.657044,62.6330924 C39.657044,56.9301832 44.2959576,52.2912696 49.9997594,52.2912696 C55.701776,52.2912696 60.3406896,56.9301832 60.3406896,62.6330924 C60.3406896,68.3360016 55.701776,72.9758079 49.9997594,72.9758079 L49.9997594,72.9758079 Z M49.9997594,57.3024032 C47.0594897,57.3024032 44.6672849,59.694608 44.6672849,62.633985 C44.6672849,65.5751473 47.0594897,67.9682448 49.9997594,67.9682448 C52.9400291,67.9682448 55.3322339,65.5751473 55.3322339,62.633985 C55.3322339,59.6937154 52.9400291,57.3024032 49.9997594,57.3024032 L49.9997594,57.3024032 Z M49.9997594,65.2895109 C48.5358729,65.2895109 47.3451261,64.0978716 47.3451261,62.6330924 C47.3451261,61.1700985 48.5358729,59.9793518 49.9997594,59.9793518 C51.463646,59.9793518 52.6543927,61.1700985 52.6543927,62.6330924 C52.6543927,64.0978716 51.463646,65.2895109 49.9997594,65.2895109 L49.9997594,65.2895109 Z M34.1058791,62.6330924 C34.1058791,63.3721766 33.5069353,63.9720131 32.7669585,63.9720131 L29.2884427,63.9720131 C28.5484659,63.9720131 27.9495221,63.3721766 27.9495221,62.6330924 C27.9495221,61.8940083 28.5484659,61.2941718 29.2884427,61.2941718 L32.7669585,61.2941718 C33.5069353,61.2941718 34.1058791,61.8940083 34.1058791,62.6330924 L34.1058791,62.6330924 Z M15.7153581,39.7000601 L28.4734864,39.7000601 C29.2134632,39.7000601 29.812407,39.1011163 29.812407,38.3611395 L29.812407,28.1148263 C29.812407,27.3748495 29.2134632,26.7759057 28.4734864,26.7759057 L25.3252377,26.7759057 L26.4115486,23.8204616 L31.4298231,23.8204616 L31.4298231,26.6241614 C31.4298231,27.3641382 32.0287669,27.963082 32.7687437,27.963082 L67.2307751,27.963082 C67.9698593,27.963082 68.5696957,27.3641382 68.5696957,26.6241614 L68.5696957,23.8204616 L73.5879702,23.8204616 L74.6742811,26.7759057 L71.5251399,26.7759057 C70.7860557,26.7759057 70.1862192,27.3748495 70.1862192,28.1148263 L70.1862192,38.3611395 C70.1862192,39.1011163 70.7860557,39.7000601 71.5251399,39.7000601 L84.2850533,39.7000601 C84.2921942,39.7009527 84.2984425,39.7000601 84.3029056,39.7000601 C85.0428824,39.7000601 85.6418262,39.1011163 85.6418262,38.3611395 C85.6418262,38.1968986 85.6132626,38.0406912 85.5588131,37.8951951 L83.6102373,27.8604314 C83.4879493,27.2311387 82.936314,26.7767983 82.2954173,26.7767983 L77.5279673,26.7767983 L75.779337,22.0200597 C75.5847472,21.4934176 75.0839909,21.143513 74.5225368,21.143513 L68.5696957,21.143513 L68.5696957,18.3389206 C68.5696957,17.5989438 67.9698593,17 67.2307751,17 L32.7678511,17 C32.0278743,17 31.4289305,17.5989438 31.4289305,18.3389206 L31.4289305,21.1426204 L25.476982,21.1426204 C24.915528,21.1426204 24.4138791,21.492525 24.2201819,22.0191671 L22.4724442,26.7759057 L17.7041015,26.7759057 C17.0632049,26.7759057 16.5115696,27.2302461 16.3892815,27.8595388 L14.4005381,38.105852 C14.3246659,38.4977094 14.4273165,38.9047413 14.6817114,39.212693 C14.9361063,39.5206448 15.3154672,39.7000601 15.7153581,39.7000601 L15.7153581,39.7000601 Z M82.6604963,37.0222189 L72.8631679,37.0222189 L72.8631679,29.453747 L76.5907229,29.453747 L76.5934007,29.453747 L76.5960785,29.453747 L81.1912541,29.453747 L82.6604963,37.0222189 L82.6604963,37.0222189 Z M34.1067717,19.6778412 L65.8909619,19.6778412 L65.8909619,25.2843482 L34.1067717,25.2843482 L34.1067717,19.6778412 L34.1067717,19.6778412 Z M18.8073721,29.453747 L23.4034403,29.453747 L23.4061181,29.453747 L23.408796,29.453747 L27.1345657,29.453747 L27.1345657,37.0222189 L17.3390225,37.0222189 L18.8073721,29.453747 L18.8073721,29.453747 Z"></path>
            </g>
        </g>
    </g>
</svg>