<?xml version="1.0" encoding="UTF-8" standalone="no"?>
<svg width="20px" height="20px" viewBox="0 0 20 20" version="1.1" xmlns="http://www.w3.org/2000/svg" xmlns:xlink="http://www.w3.org/1999/xlink">
    <!-- Generator: Sketch 39.1 (31720) - http://www.bohemiancoding.com/sketch -->
    <title>ic_user</title>
    <desc>Created with Sketch.</desc>
    <defs></defs>
    <g id="Website" stroke="none" stroke-width="1" fill="none" fill-rule="evenodd" opacity="0.400000006">
        <g id="Главная" transform="translate(-562.000000, -4202.000000)">
            <g id="form" transform="translate(540.000000, 4187.000000)">
                <g id="ic_user" transform="translate(22.000000, 15.000000)">
                    <rect id="Rectangle-path" x="0" y="0" width="20" height="20"></rect>
                    <path d="M9.95663366,13.9190099 C6.87940594,13.9190099 4.37564356,11.4154455 4.37564356,8.3380198 L4.37564356,5.58336634 C4.37564356,2.50574257 6.87940594,0.00198019802 9.95663366,0.00198019802 C13.0342574,0.00198019802 15.5380198,2.50574257 15.5380198,5.58336634 L15.5380198,8.3380198 C15.5380198,11.4154455 13.0342574,13.9190099 9.95663366,13.9190099 L9.95663366,13.9190099 Z M9.95663366,0.794059406 C7.3160396,0.794059406 5.16772277,2.94257426 5.16772277,5.58336634 L5.16772277,8.3380198 C5.16772277,10.9784158 7.3160396,13.1269307 9.95663366,13.1269307 C12.5974257,13.1269307 14.7459406,10.9784158 14.7459406,8.3380198 L14.7459406,5.58336634 C14.7459406,2.94257426 12.5974257,0.794059406 9.95663366,0.794059406 Z M17.4914851,19.8039604 L2.3409901,19.8039604 C1.05029703,19.8039604 0.000594059406,18.7538614 0.000594059406,17.4633663 L0.000594059406,15.7338614 C0.000594059406,14.970099 0.387326733,13.9463366 2.23029703,13.409505 L4.49623762,12.7821782 C4.70752475,12.7245545 4.92534653,12.8475248 4.98356436,13.0584158 C5.04178218,13.2693069 4.91821782,13.4873267 4.70732673,13.5457426 L2.44653465,14.1714851 C0.792475248,14.6534653 0.792475248,15.4667327 0.792475248,15.7340594 L0.792475248,17.4635644 C0.792475248,18.3176238 1.48712871,19.0120792 2.34079208,19.0120792 L17.4912871,19.0120792 C18.3451485,19.0120792 19.039604,18.3174257 19.039604,17.4635644 L19.039604,15.7340594 C19.039604,15.0126733 18.4819802,14.4867327 17.3817822,14.170495 L15.2249505,13.5675248 C15.0142574,13.5087129 14.8910891,13.290297 14.950099,13.0794059 C15.0091089,12.8689109 15.2269307,12.7449505 15.4380198,12.8047525 L17.5976238,13.4085149 C19.4443564,13.939604 19.8314851,14.9663366 19.8314851,15.7340594 L19.8314851,17.4635644 C19.8318812,18.7538614 18.7821782,19.8039604 17.4914851,19.8039604 Z" fill="#FFFFFF"></path>
                </g>
            </g>
        </g>
    </g>
</svg>