<?xml version="1.0" encoding="UTF-8" standalone="no"?>
<svg width="32px" height="32px" viewBox="0 0 32 32" version="1.1" xmlns="http://www.w3.org/2000/svg" xmlns:xlink="http://www.w3.org/1999/xlink">
    <!-- Generator: Sketch 39.1 (31720) - http://www.bohemiancoding.com/sketch -->
    <title>ic_vk_white</title>
    <desc>Created with Sketch.</desc>
    <defs></defs>
    <g id="Website" stroke="none" stroke-width="1" fill="none" fill-rule="evenodd">
        <g id="mob_menu" transform="translate(-259.000000, -509.000000)">
            <g id="Menu">
                <g id="soc" transform="translate(260.000000, 510.000000)">
                    <g id="ic_vk_white">
                        <circle id="Oval-2-Copy" stroke="#FFFFFF" stroke-width="2" opacity="0.200000003" cx="15" cy="15" r="15"></circle>
                        <path d="M15.543562,20.9948175 C16.0761647,20.9948175 16.0761647,20.1946768 16.0761647,19.8842822 C16.0761647,19.3290146 16.6087675,18.7737469 17.1413702,18.7737469 C17.6739729,18.7737469 18.5873865,19.7260309 19.271781,20.4395499 C19.8043837,20.9948175 19.8043837,20.9948175 20.3369864,20.9948175 L21.9347946,20.9948175 C21.9347946,20.9948175 23,20.9526172 23,19.8842822 C23,19.5372399 22.6351671,18.9486563 21.4021919,17.6632117 C20.3369864,16.5526764 19.7905361,17.1262679 21.4021919,14.8868735 C22.3837787,13.5231362 23.0979989,12.2876657 22.9755003,11.9311838 C22.8583277,11.5908048 20.1282062,11.0488636 19.8043837,11.5552676 C18.7391783,13.2210706 18.5437131,13.6291923 18.2065756,14.3316058 C17.6739729,15.4421411 17.6212452,15.9974088 17.1413702,15.9974088 C16.6572343,15.9974088 16.6087675,14.9196343 16.6087675,14.3316058 C16.6087675,12.495891 16.8638842,11.1976753 16.0761647,11 L14.4783566,11 C13.6208662,11 12.8805485,11.5552676 12.8805485,11.5552676 C12.8805485,11.5552676 12.2195885,12.0927667 12.3479458,12.1105353 C12.5066614,12.132746 13.4131512,11.8806545 13.4131512,12.6658029 L13.4131512,13.7763382 C13.4131512,13.7763382 13.4179446,15.9974088 12.8805485,15.9974088 C12.3479458,15.9974088 11.2827403,13.7763382 10.2175349,12.1105353 C9.79944178,11.4569853 9.6849322,11.5552676 9.15232949,11.5552676 C8.58137938,11.5552676 8.08765666,11.5785889 7.55452135,11.5785889 C7.02191864,11.5785889 6.95374549,11.9322944 7.02191864,12.1105353 C8.08712406,14.8868735 8.85247416,16.6304139 10.8763645,18.8270526 C12.7324849,20.8421189 13.972384,20.9492856 15.0109593,20.9948175 C15.2772607,21.0064781 15.0109593,20.9948175 15.543562,20.9948175 L15.543562,20.9948175 Z" id="ic_vk" fill="#FFFFFF"></path>
                    </g>
                </g>
            </g>
        </g>
    </g>
</svg>