<?xml version="1.0" encoding="UTF-8" standalone="no"?>
<svg width="140px" height="40px" viewBox="0 0 320 117" version="1.1" xmlns="http://www.w3.org/2000/svg" xmlns:xlink="http://www.w3.org/1999/xlink">
    <defs></defs>
    <g id="Logo" stroke="none" stroke-width="1" fill="none" fill-rule="evenodd">
        <g id="logo" transform="translate(1.000000, 1.000000)">
            <path d="M136,2.0966811 L147.381073,37.9033189 L156.135745,37.9033189 L161.716849,19.2597403 L162.045149,19.2597403 L167.680969,37.9033189 L176.380924,37.9033189 L187.816714,2.0966811 L177.803558,2.0966811 L172.058305,22.7691198 L171.730004,22.7691198 L165.601734,2.0966811 L158.54328,2.0966811 L152.360293,22.7691198 L152.031993,22.7691198 L146.286739,2.0966811 L136,2.0966811 Z M189.522051,19.9177489 C189.522051,30.5007215 198.440873,39 209.821946,39 C221.20302,39 230.340709,30.5007215 230.340709,19.9177489 C230.340709,9.4992785 221.20302,1 209.821946,1 C198.440873,1 189.522051,9.4992785 189.522051,19.9177489 L189.522051,19.9177489 Z M199.425774,19.9177489 C199.425774,13.995671 203.96726,9.06060606 209.821946,9.06060606 C215.73135,9.06060606 220.382269,13.995671 220.382269,19.9177489 C220.382269,25.9494949 215.73135,30.994228 209.821946,30.994228 C203.96726,30.994228 199.425774,25.9494949 199.425774,19.9177489 L199.425774,19.9177489 Z M233.523397,19.9177489 C233.523397,30.5007215 242.442219,39 253.823292,39 C265.204365,39 274.342054,30.5007215 274.342054,19.9177489 C274.342054,9.4992785 265.204365,1 253.823292,1 C242.442219,1 233.523397,9.4992785 233.523397,19.9177489 L233.523397,19.9177489 Z M243.427119,19.9177489 C243.427119,13.995671 247.968605,9.06060606 253.823292,9.06060606 C259.732695,9.06060606 264.383615,13.995671 264.383615,19.9177489 C264.383615,25.9494949 259.732695,30.994228 253.823292,30.994228 C247.968605,30.994228 243.427119,25.9494949 243.427119,19.9177489 L243.427119,19.9177489 Z M296.894454,37.9033189 C303.952908,37.9033189 308.439677,35.8744589 311.558529,32.8037518 C314.841531,29.5685426 316.592465,24.962482 316.592465,19.972583 C316.592465,15.0923521 314.896248,10.7056277 311.832112,7.47041847 C308.494394,3.96103896 303.569891,2.0966811 296.894454,2.0966811 L280.424727,2.0966811 L280.424727,37.9033189 L296.894454,37.9033189 Z M290.000149,29.8427128 L290.000149,10.1572872 L296.675587,10.1572872 C300.615189,10.1572872 302.475557,11.1443001 304.062341,12.8441558 C305.758559,14.6536797 306.688743,16.95671 306.688743,20.0822511 C306.688743,23.4271284 305.649125,25.6753247 303.788758,27.4848485 C302.201973,29.020202 300.341606,29.8427128 296.675587,29.8427128 L290.000149,29.8427128 Z" id="wood" fill="#FFFFFF"></path>
            <path d="M154.430484,81.047619 C160.614978,81.047619 164.546206,79.2857143 167.278889,76.6190476 C170.155398,73.8095238 171.689536,69.8095238 171.689536,65.4761905 C171.689536,61.2380952 170.203339,57.4285714 167.518598,54.6190476 C164.594148,51.5714286 160.279385,49.952381 154.430484,49.952381 L140,49.952381 L140,81.047619 L154.430484,81.047619 Z M148.389817,74.047619 L148.389817,56.952381 L154.238717,56.952381 C157.690527,56.952381 159.320549,57.8095238 160.710861,59.2857143 C162.197057,60.8571429 163.012068,62.8571429 163.012068,65.5714286 C163.012068,68.4761905 162.101174,70.4285714 160.471152,72 C159.08084,73.3333333 157.450818,74.047619 154.238717,74.047619 L148.389817,74.047619 Z M174.476773,65.4285714 C174.476773,74.6190476 182.291288,82 192.263184,82 C202.23508,82 210.241362,74.6190476 210.241362,65.4285714 C210.241362,56.3809524 202.23508,49 192.263184,49 C182.291288,49 174.476773,56.3809524 174.476773,65.4285714 L174.476773,65.4285714 Z M183.15424,65.4285714 C183.15424,60.2857143 187.13341,56 192.263184,56 C197.440899,56 201.515953,60.2857143 201.515953,65.4285714 C201.515953,70.6666667 197.440899,75.047619 192.263184,75.047619 C187.13341,75.047619 183.15424,70.6666667 183.15424,65.4285714 L183.15424,65.4285714 Z M212.788891,65.4285714 C212.788891,74.6190476 220.603405,82 230.575302,82 C240.547198,82 248.55348,74.6190476 248.55348,65.4285714 C248.55348,56.3809524 240.547198,49 230.575302,49 C220.603405,49 212.788891,56.3809524 212.788891,65.4285714 L212.788891,65.4285714 Z M221.466358,65.4285714 C221.466358,60.2857143 225.445528,56 230.575302,56 C235.753017,56 239.828071,60.2857143 239.828071,65.4285714 C239.828071,70.6666667 235.753017,75.047619 230.575302,75.047619 C225.445528,75.047619 221.466358,70.6666667 221.466358,65.4285714 L221.466358,65.4285714 Z M262.031741,81.047619 L262.031741,70.0952381 L269.462721,70.0952381 L275.455447,81.047619 L284.947925,81.047619 L277.756654,68.6666667 C281.304348,66.8571429 283.509671,63.8571429 283.509671,60.047619 C283.509671,57.4761905 282.502893,55.1904762 280.82493,53.4285714 C278.811374,51.3333333 275.838982,49.952381 271.092743,49.952381 L253.641924,49.952381 L253.641924,81.047619 L262.031741,81.047619 Z M271.572161,56.7142857 C272.435113,56.7142857 273.441891,56.8571429 274.20896,57.6666667 C274.784262,58.2857143 275.119855,59.1428571 275.119855,60 C275.119855,62.1428571 273.537775,63.3333333 271.572161,63.3333333 L262.031741,63.3333333 L262.031741,56.7142857 L271.572161,56.7142857 Z M316.452306,52.8095238 C313.623739,51.1428571 307.918664,49 301.494462,49 C295.405852,49 288.166639,51.4285714 288.166639,59.1428571 C288.166639,67.4761905 296.268805,68.1904762 303.268309,68.7619048 C307.295421,69.0952381 309.980162,69.5238095 309.980162,71.7619048 C309.980162,73.8095238 307.726897,75.4761905 303.84361,75.4761905 C298.282361,75.4761905 293.296413,72.0952381 291.139031,70.5714286 L286.632501,76.2380952 C290.419904,79 296.029096,82 303.987436,82 C311.849893,82 318.369979,78.9047619 318.369979,71.047619 C318.369979,62.5714286 309.308977,61.8095238 303.55596,61.4285714 C300.152091,61.0952381 296.556456,60.9047619 296.556456,58.7142857 C296.556456,56.7142857 298.761779,55.5714286 301.302695,55.5714286 C305.905108,55.5714286 309.836337,57.4285714 311.897834,58.6190476 L316.452306,52.8095238 Z" id="doors" fill="#FFFFFF"></path>
            <path d="M154.759349,99.5545977 C153.514143,98.6925287 150.657495,97.4353448 147.43461,97.4353448 C144.35822,97.4353448 140.659227,98.6206897 140.659227,102.392241 C140.659227,106.343391 144.724457,106.558908 148.203708,106.774425 C150.401129,106.882184 153.770509,107.097701 153.770509,109.683908 C153.770509,111.982759 151.206851,113.132184 148.093837,113.132184 C144.76108,113.132184 142.490411,111.767241 140.915592,110.689655 L140,112.377874 C141.648066,113.527299 144.175101,114.96408 148.13046,114.96408 C152.452056,114.96408 156.041178,113.239943 156.041178,109.50431 C156.041178,105.050287 151.09698,104.798851 148.203708,104.655172 C145.969662,104.547414 142.929896,104.403736 142.929896,102.140805 C142.929896,100.093391 145.347059,99.3031609 147.471234,99.3031609 C150.181387,99.3031609 152.745046,100.488506 153.843757,101.242816 L154.759349,99.5545977 Z M162.931485,114.461207 L162.931485,97.9741379 L160.660816,97.9741379 L160.660816,114.461207 L162.931485,114.461207 Z M160.221331,91.4367816 C160.221331,92.191092 160.880558,92.8376437 161.759527,92.8376437 C162.675119,92.8376437 163.334345,92.2270115 163.334345,91.4367816 C163.334345,90.6465517 162.675119,90 161.759527,90 C160.880558,90 160.221331,90.6465517 160.221331,91.4367816 L160.221331,91.4367816 Z M171.433234,114.461207 L171.433234,102.392241 C172.788311,100.991379 174.839237,99.4468391 177.549391,99.4468391 C180.259544,99.4468391 182.090729,101.135057 182.090729,103.25431 L182.090729,114.461207 L184.398022,114.461207 L184.398022,103.25431 C184.398022,99.9137931 181.651245,97.5071839 177.915628,97.5071839 C174.76599,97.5071839 172.678439,99.0517241 171.213492,100.596264 C171.176868,99.6264368 171.066997,98.8721264 170.737384,97.9741379 L168.649833,97.9741379 C169.01607,99.3390805 169.162565,100.632184 169.162565,101.889368 L169.162565,114.461207 L171.433234,114.461207 Z M205.388451,100.201149 C203.337524,98.3692529 200.700618,97.5071839 198.100336,97.5071839 C193.119513,97.5071839 189.017659,100.95546 189.017659,106.163793 C189.017659,111.479885 193.229384,114.928161 198.100336,114.928161 C202.421932,114.928161 205.095461,112.557471 205.791312,111.731322 L204.253116,110.33046 C203.227653,111.408046 201.21335,112.952586 198.320078,112.952586 C194.621085,112.952586 191.50807,110.29454 191.50807,106.163793 C191.50807,102.104885 194.47459,99.4468391 198.100336,99.4468391 C200.114639,99.4468391 202.238813,100.201149 203.850256,101.70977 L205.388451,100.201149 Z M224.108211,110.366379 C222.643263,111.91092 220.33597,112.952586 217.699064,112.952586 C213.450716,112.952586 210.996928,109.971264 210.996928,106.343391 L210.996928,106.271552 L226.08589,106.271552 C226.122514,106.020115 226.122514,105.768678 226.122514,105.553161 C226.049267,99.9137931 221.6178,97.5071839 217.662441,97.5071839 C212.571747,97.5071839 208.726259,101.422414 208.726259,106.41523 C208.726259,111.08477 212.022391,114.928161 217.479322,114.928161 C220.921949,114.928161 223.815221,113.563218 225.646406,111.803161 L224.108211,110.366379 Z M217.552569,99.3390805 C220.372594,99.3390805 223.522232,101.027299 223.632103,104.511494 L211.21667,104.511494 C211.91252,101.602011 214.293061,99.3390805 217.552569,99.3390805 L217.552569,99.3390805 Z M235.87452,99.5186782 L241.587817,97.0761494 L241.587817,114.461207 L244.004981,114.461207 L244.004981,94.8850575 L241.587817,94.8850575 L235.325165,97.579023 L235.87452,99.5186782 Z M250.858663,112.988506 C251.737632,113.563218 254.081549,115 258.146779,115 C263.933323,115 269.170511,111.048851 269.170511,104.331897 C269.170511,97.7945402 264.00657,94.3462644 258.549639,94.3462644 C253.275827,94.3462644 249.503587,97.5431034 249.503587,101.422414 C249.503587,104.295977 252.140493,107.636494 257.853789,107.636494 C261.809148,107.636494 265.032033,105.948276 266.936466,104.655172 C266.789971,109.863506 262.688117,112.880747 258.183402,112.880747 C255.839486,112.880747 253.678688,112.306034 252.103869,111.336207 L250.858663,112.988506 Z M258.036908,105.696839 C253.715312,105.696839 251.957374,103.326149 251.957374,101.458333 C251.957374,98.908046 254.704151,96.4655172 258.476392,96.4655172 C262.431751,96.4655172 266.094121,98.6925287 266.826595,102.859195 C265.032033,103.972701 261.735901,105.696839 258.036908,105.696839 L258.036908,105.696839 Z M274.009891,112.988506 C274.888859,113.563218 277.232776,115 281.298006,115 C287.08455,115 292.321738,111.048851 292.321738,104.331897 C292.321738,97.7945402 287.157797,94.3462644 281.700866,94.3462644 C276.427054,94.3462644 272.654814,97.5431034 272.654814,101.422414 C272.654814,104.295977 275.29172,107.636494 281.005016,107.636494 C284.960375,107.636494 288.18326,105.948276 290.087693,104.655172 C289.941198,109.863506 285.839344,112.880747 281.33463,112.880747 C278.990713,112.880747 276.829915,112.306034 275.255096,111.336207 L274.009891,112.988506 Z M281.188135,105.696839 C276.866539,105.696839 275.108601,103.326149 275.108601,101.458333 C275.108601,98.908046 277.855378,96.4655172 281.627619,96.4655172 C285.582978,96.4655172 289.245348,98.6925287 289.977822,102.859195 C288.18326,103.972701 284.887128,105.696839 281.188135,105.696839 L281.188135,105.696839 Z M314.520749,96.3577586 C313.605157,95.783046 311.297864,94.3462644 307.232634,94.3462644 C301.44609,94.3462644 296.208901,98.3333333 296.208901,105.014368 C296.208901,111.551724 301.372842,115 306.866397,115 C312.103585,115 315.875826,111.803161 315.875826,107.95977 C315.875826,105.050287 313.23892,101.70977 307.562247,101.70977 C303.53364,101.70977 300.347379,103.433908 298.442947,104.727011 C298.589442,99.4827586 302.727919,96.4655172 307.159386,96.4655172 C309.503303,96.4655172 311.700724,97.0402299 313.23892,98.045977 L314.520749,96.3577586 Z M307.342505,103.649425 C311.627477,103.649425 313.422038,106.020115 313.422038,107.923851 C313.422038,110.438218 310.675261,112.880747 306.90302,112.880747 C302.911038,112.880747 299.285292,110.689655 298.552818,106.558908 C300.347379,105.409483 303.643512,103.649425 307.342505,103.649425 L307.342505,103.649425 Z" id="since-1996" fill="#FFFFFF"></path>
            <g id="icon" stroke="#FFFFFF" stroke-width="2" stroke-linecap="round" stroke-linejoin="round">
                <path d="M96,0 C90.667,7.46278761 84.837,14.6223009 80.18,22.499292 C77.219,27.5084071 75.531,33.4619469 74.086,39.2038053 C69.422,57.7462832 59.918,71.7661062 40.994,77.3237611 C25.749,81.7996018 14.733,91.4158407 6.941,105.297257 C5.003,108.75031 2.333,111.776947 0,115" id="Stroke-1"></path>
                <path d="M111,0 C97.869,13.6269912 88.69,29.3636726 84.873,48.3142478 C83.304,56.1067699 80.857,63.8270354 77.859,71.1799115 C74.565,79.2594248 68.252,84.3764159 60.045,87.6391593 C45.657,93.3576106 33.011,101.785177 24,115" id="Stroke-3"></path>
                <path d="M102,0 C96.667,6.785 90.365,13.0194248 86.261,20.5025664 C81.78,28.6706195 78.874,37.8472124 76.104,46.8477434 C71.61,61.4557965 62.831,72.0795575 49.484,78.839115 C43.411,81.9146018 37.119,84.5382301 31.012,87.5485841 C23.864,91.0708407 19.503,97.5332301 15.001,103.806327 C12.327,107.532124 9.667,111.268097 7,115" id="Stroke-5"></path>
                <path d="M114,2 C102.123,14.2986757 96.66,30.1441261 91.135,45.8246577 C88.668,52.8276036 88.308,60.6032252 85.821,67.595991 C83.3,74.6824144 79.89,81.6232613 75.719,87.826045 C74.111,90.2173694 69.41,90.7487748 65.986,91.5183964 C56.287,93.698991 48.898,99.5617568 41.995,106.341757 C39.025,109.258378 36,112.115955 33,115" id="Stroke-7"></path>
                <path d="M106,0 C99.167,9.32924779 91.542,18.1852655 85.791,28.1607522 C82.224,34.3483628 81.324,42.1887168 79.534,49.3675664 C75.015,67.4907522 64.4,80.2119912 47.5,87.5231416 C33.97,93.3759292 22.719,102.026372 15,115" id="Stroke-9"></path>
                <path d="M90,0 C79.156,7.4472 74.259,18.340819 71.871,31.0554762 C70.6,37.8219524 68.562,44.577219 65.868,50.8942952 C61.838,60.3459619 54.336,66.4928571 45,70.3132667 C40.002,72.3584952 35.02,74.4424476 29.996,76.418381 C19.268,80.6372381 12.124,88.8905048 5.987,98.3289238 C4.072,101.273971 2,104.113038 0,107" id="Stroke-11"></path>
                <path d="M114,9 C103.262,19.7263846 98.504,33.7051346 94.083,47.7582885 C91.62,55.5900577 90.354,63.8132115 87.906,71.6521154 C85.129,80.5459231 83.028,90.9604231 72.452,93.3780385 C58.919,96.4714038 50.086,105.703596 41,115" id="Stroke-13"></path>
                <path d="M85,0 C78.994,4.7683125 73.902,10.3655417 71.58,17.8901042 C69.994,23.03 69.378,28.4741042 67.94,33.6701458 C66.552,38.6844792 64.968,43.689625 62.933,48.4599792 C59.396,56.7522083 52.233,60.9100625 44.51,64.3349583 C37.464,67.46075 30.46,70.6906667 23.51,74.032875 C15.004,78.1223333 9.017,84.9915208 3.975,92.8784792 C2.814,94.6945417 1.333,96.2982708 0,98" id="Stroke-15"></path>
                <path d="M114,16 C104.457,28.9945155 98.834,43.7506186 94.944,59.362 C92.931,67.4391753 90.089,75.3030412 88.079,83.3812371 C86.509,89.690701 82.158,93.9742371 76.931,95.3316598 C64.798,98.4843505 56.065,106.04101 48,115" id="Stroke-17"></path>
                <path d="M79,0 C75,5.7987907 70.553,11.3397209 67.172,17.4946047 C65.224,21.0422326 65.12,25.6172093 63.963,29.6631628 C62.973,33.1268837 62.082,36.7246512 60.428,39.8670698 C53.407,53.2062326 41.876,61.1139535 28.487,66.4778605 C17.067,71.051814 7.651,78.2698605 0,88" id="Stroke-19"></path>
                <path d="M72,0 C69,3.7128375 66.076,7.4914875 62.983,11.1223125 C57.73,17.2884375 50.48,19.95435 42.978,21.1167 C32.395,22.7559375 26.261,29.6136 21.006,37.9728 C17.576,43.4271375 15.273,49.2105375 13.806,55.6419375 C11.619,65.2374 6.897,73.8264375 0,81" id="Stroke-21"></path>
                <path d="M114,26 C106.043,42.5949195 99.153,59.5857356 94.95,77.6486437 C93.047,85.8264138 90.986,93.6287471 82.112,97.8557356 C75.759,100.881736 74.448,108.362851 73,115" id="Stroke-23"></path>
                <path d="M66,0 C65.5,0.506944444 64.984,0.998680556 64.502,1.52286111 C57.61,9.03070833 50.565,15.3168194 39.549,17.0505694 C25.204,19.3085 17.814,30.5940972 13.015,43.6033056 C9.661,52.6938333 8.655,62.7658056 2.005,70.4693333 C1.303,71.2824722 0.667,72.1554306 0,73" id="Stroke-25"></path>
                <path d="M61,0 C58.333,2.37062903 55.69,4.76970968 52.995,7.10680645 C48.537,10.9731774 43.404,13.0907903 37.5,13.2147581 C26.826,13.4393226 19.144,18.2486613 14.998,28.4505968 C11.006,38.2765645 7.039,48.1137097 2.964,57.9041129 C2.215,59.7046935 1,61.3061129 0,63" id="Stroke-27"></path>
                <path d="M114,42 C105.688,52.5403889 103.108,65.3792639 100.024,77.9991389 C98.876,82.6934444 98.172,87.5023194 96.949,92.1733056 C95.849,96.375875 92.678,99.4033472 88.949,100.649417 C81.75,103.054361 77.241,107.357306 76,115" id="Stroke-29"></path>
                <path d="M52,0 C46.498,7.51026 37.998,9.73182 29.995,9.85524 C17.6,10.04496 13.698,18.09174 9.959,27.52266 C6.826,35.42562 3.333,43.17966 0,51" id="Stroke-31"></path>
                <path d="M114,50 C108.45,56.9641406 106.973,65.5370312 105.058,73.8814062 C103.754,79.5638281 103.434,85.5021875 101.878,91.0982812 C100.327,96.6771094 96.443,100.905156 91.475,103.784453 C86.939,106.412891 83.174,109.528828 82,115" id="Stroke-33"></path>
                <path d="M42,0 C38.263,3.29948718 33.975,4.90666667 29.005,5.21846154 C25.478,5.43897436 22.001,6.50358974 18.5,7.1774359 C14.171,8.01025641 11.594,10.8666667 10,14.8717949 C6.667,23.2482051 3.333,31.6235897 0,40" id="Stroke-35"></path>
                <path d="M114,59 C109.88,65.3259636 108.677,72.5723636 108.055,79.8778182 C106.969,92.6234182 104.126,104.171636 91.542,110.503709 C89.74,111.410909 88.5,113.472727 87,115" id="Stroke-37"></path>
                <path d="M114,73 C112.333,80.5118537 110.173,87.957122 109.187,95.5621951 C108.607,100.037756 106.983,103.412098 103.972,106.261951 C100.762,109.300293 97.333,112.097902 94,115" id="Stroke-39"></path>
                <path d="M28,0 C23.667,0.667 19.352,1.522 14.995,1.952 C9.586,2.487 6.893,4.511 4.99,9.996 C3.711,13.682 2.333,17.333 1,21" id="Stroke-41"></path>
                <path d="M43.5629533,33 C35.2929756,34.4731674 31.1145644,40.5239625 28,47.5885609 C35.1459318,50.0214889 47.7206402,41.1934931 46.9676578,33.5003965 L44.0563888,33.5003965" id="Stroke-43"></path>
                <path d="M36.483871,43 C39.0570968,41.7512199 41.6303226,40.5024399 45,38.8669817 C39.2516129,37.0612766 37.5106452,37.9777127 36,42.5472154" id="Stroke-45"></path>
                <path d="M67.5117869,115 C68.6742014,110.959767 69.8375855,106.918499 71,102.878266 C70.529799,102.585166 70.0586284,102.292065 69.5884274,102 C62.1708848,103.773104 57.7354832,110.456421 52,115" id="Stroke-47"></path>
                <path d="M114,98 C112.844,105.674 107.355,110.29 102,115" id="Stroke-49"></path>
                <path d="M8,0 C2.179,2.456 2.514,8.225 1,13" id="Stroke-51"></path>
                <path d="M62.810736,115 C63.2068345,114.333427 63.6039015,113.667694 64,113.001121 C63.7491699,112.667414 63.4993082,112.333707 63.2484781,112 C61.1653293,112.99944 59.0831489,113.99972 57,115" id="Stroke-53"></path>
                <path d="M114,110 C112.333,111.667 110.667,113.333 109,115" id="Stroke-55"></path>
                <path d="M44.9593189,28.0020083 C38.5626753,30.3885571 33.0639818,34.192023 28.4762374,39.32809 C24.4654609,43.8163648 22.5415681,49.0799337 23.0925374,56 C25.0614277,55.4889639 26.5373455,55.1969433 27.9562664,54.7229239 C36.9827634,51.7040064 45.4362923,47.7956599 50.4420134,38.7882631 C51.0679785,37.6623385 51.4879551,36.4109684 51.9539291,35.1976433 C54.0958097,29.6184041 53.1148644,28.0565051 47.4591796,28.0030365 C46.7922167,27.9968671 46.1262538,28.0020083 45.459291,28.0020083" id="Stroke-57"></path>
                <path d="M54.3350228,21 C47.5306287,23.3793409 40.5719713,25.1331849 34.49835,29.6016035 C25.0220371,36.5740535 19.8294963,46.3469304 16.3783503,57.3217425 C15.6001119,59.7961344 16.2636417,62.7549797 16.2636417,66 C24.5760581,62.0518068 32.5275379,58.8415363 39.9381076,54.6173885 C50.0809168,48.8366531 55.2971904,38.6651752 59.6818269,28.1134934 C60.3394235,26.5313543 59.7737915,24.4065048 59.7737915,21.9535761 C58.193582,21.6490041 56.5115192,21.323991 54.8294563,21" id="Stroke-59"></path>
            </g>
        </g>
    </g>
</svg>
