<?xml version="1.0" encoding="UTF-8"?>
<svg width="22px" height="22px" viewBox="0 0 22 22" version="1.1" xmlns="http://www.w3.org/2000/svg" xmlns:xlink="http://www.w3.org/1999/xlink">
    <!-- Generator: Sketch 40.2 (33826) - http://www.bohemiancoding.com/sketch -->
    <title>Shape</title>
    <desc>Created with Sketch.</desc>
    <defs></defs>
    <g id="Website" stroke="none" stroke-width="1" fill="none" fill-rule="evenodd" opacity="0.400000006">
        <g id="Главная.-Поп-ап" transform="translate(-561.000000, -474.000000)" stroke="#122C2B">
            <g id="Group-3" transform="translate(491.000000, 220.000000)">
                <g id="Group" transform="translate(49.000000, 240.000000)">
                    <g id="phone" transform="translate(22.000000, 15.000000)">
                        <path d="M12.0868,14.1008 C12.0868,14.1008 13.7064,13.1736 14.1304,12.9508 C14.5532,12.7272 14.9912,12.6708 15.2572,12.8332 C15.66,13.0796 19.0424,15.3296 19.3272,15.5288 C19.612,15.7284 19.7492,16.2984 19.3576,16.8568 C18.9676,17.4152 17.1684,19.6232 16.406,19.5996 C15.6424,19.5748 12.4676,19.5052 6.4808,13.5168 C0.4952,7.5304 0.4244,4.3548 0.4,3.5912 C0.3756,2.828 2.5836,1.0284 3.142,0.638 C3.7012,0.248 4.272,0.3948 4.4704,0.6692 C4.696,0.9816 6.92,4.3532 7.1648,4.7396 C7.3324,5.0036 7.2708,5.444 7.0472,5.8672 C6.8248,6.2912 5.8976,7.9108 5.8976,7.9108 C5.8976,7.9108 6.5512,9.0256 8.7616,11.2356 C10.9724,13.446 12.0868,14.1008 12.0868,14.1008 L12.0868,14.1008 Z" id="Shape"></path>
                    </g>
                </g>
            </g>
        </g>
    </g>
</svg>