<?xml version="1.0" encoding="UTF-8"?>
<svg width="20px" height="20px" viewBox="0 0 20 20" version="1.1" xmlns="http://www.w3.org/2000/svg" xmlns:xlink="http://www.w3.org/1999/xlink">
    <!-- Generator: Sketch 40.2 (33826) - http://www.bohemiancoding.com/sketch -->
    <title>Name</title>
    <desc>Created with Sketch.</desc>
    <defs></defs>
    <g id="Website" stroke="none" stroke-width="1" fill="none" fill-rule="evenodd" opacity="0.400000006">
        <g id="Главная.-Поп-ап" transform="translate(-562.000000, -405.000000)" fill="#122C2B">
            <g id="Group-3" transform="translate(491.000000, 220.000000)">
                <g id="Group-2" transform="translate(49.000000, 170.000000)">
                    <g id="Name" transform="translate(22.000000, 15.000000)">
                        <path d="M9.9560396,13.9170297 C6.87881188,13.9170297 4.3750495,11.4134653 4.3750495,8.3360396 L4.3750495,5.58138614 C4.3750495,2.50376238 6.87881188,0 9.9560396,0 C13.0336634,0 15.5374257,2.50376238 15.5374257,5.58138614 L15.5374257,8.3360396 C15.5374257,11.4134653 13.0336634,13.9170297 9.9560396,13.9170297 L9.9560396,13.9170297 Z M9.9560396,0.792079208 C7.31544554,0.792079208 5.16712871,2.94059406 5.16712871,5.58138614 L5.16712871,8.3360396 C5.16712871,10.9764356 7.31544554,13.1249505 9.9560396,13.1249505 C12.5968317,13.1249505 14.7453465,10.9764356 14.7453465,8.3360396 L14.7453465,5.58138614 C14.7453465,2.94059406 12.5968317,0.792079208 9.9560396,0.792079208 Z M17.4908911,19.8019802 L2.34039604,19.8019802 C1.04970297,19.8019802 0,18.7518812 0,17.4613861 L0,15.7318812 C0,14.9681188 0.386732673,13.9443564 2.22970297,13.4075248 L4.49564356,12.780198 C4.70693069,12.7225743 4.92475248,12.8455446 4.9829703,13.0564356 C5.04118812,13.2673267 4.91762376,13.4853465 4.70673267,13.5437624 L2.44594059,14.169505 C0.791881188,14.6514851 0.791881188,15.4647525 0.791881188,15.7320792 L0.791881188,17.4615842 C0.791881188,18.3156436 1.48653465,19.010099 2.34019802,19.010099 L17.4906931,19.010099 C18.3445545,19.010099 19.0390099,18.3154455 19.0390099,17.4615842 L19.0390099,15.7320792 C19.0390099,15.0106931 18.4813861,14.4847525 17.3811881,14.1685149 L15.2243564,13.5655446 C15.0136634,13.5067327 14.890495,13.2883168 14.949505,13.0774257 C15.0085149,12.8669307 15.2263366,12.7429703 15.4374257,12.8027723 L17.5970297,13.4065347 C19.4437624,13.9376238 19.8308911,14.9643564 19.8308911,15.7320792 L19.8308911,17.4615842 C19.8312871,18.7518812 18.7815842,19.8019802 17.4908911,19.8019802 Z" id="ic_user"></path>
                    </g>
                </g>
            </g>
        </g>
    </g>
</svg>