<?xml version="1.0" encoding="UTF-8" standalone="no"?>
<svg width="17px" height="24px" viewBox="0 0 17 24" version="1.1" xmlns="http://www.w3.org/2000/svg" xmlns:xlink="http://www.w3.org/1999/xlink">
    <!-- Generator: Sketch 39.1 (31720) - http://www.bohemiancoding.com/sketch -->
    <title>ic_mouse</title>
    <desc>Created with Sketch.</desc>
    <defs></defs>
    <g id="Website" stroke="none" stroke-width="1" fill="none" fill-rule="evenodd" opacity="0.449999988">
        <g id="Главная" transform="translate(-712.000000, -516.000000)" fill="#FFFFFF">
            <g id="Top-area" transform="translate(-3.000000, 0.000000)">
                <g id="ic_mouse" transform="translate(715.000000, 516.000000)">
                    <path d="M8.25,4.75 C7.0070625,4.75 6,5.7570625 6,7 L6,10 C6,11.2429375 7.0070625,12.25 8.25,12.25 C9.4929375,12.25 10.5,11.2429375 10.5,10 L10.5,7 C10.5,5.7570625 9.4929375,4.75 8.25,4.75 L8.25,4.75 Z M9,10 C9,10.4138125 8.6638125,10.75 8.25,10.75 C7.8361875,10.75 7.5,10.4138125 7.5,10 L7.5,7 C7.5,6.5861875 7.8361875,6.25 8.25,6.25 C8.6638125,6.25 9,6.5861875 9,7 L9,10 L9,10 Z" id="Shape"></path>
                    <path d="M8.25,0 C3.6935625,0 0,3.6935625 0,8.25 L0,15.75 C0,20.3064375 3.6935625,24 8.25,24 C12.8064375,24 16.5,20.3064375 16.5,15.75 L16.5,8.25 C16.5,3.6935625 12.8064375,0 8.25,0 L8.25,0 Z M15,15.75 C15,19.47225 11.97225,22.5 8.25,22.5 C4.52775,22.5 1.5,19.47225 1.5,15.75 L1.5,8.25 C1.5,4.52775 4.52775,1.5 8.25,1.5 C11.97225,1.5 15,4.52775 15,8.25 L15,15.75 L15,15.75 Z" id="Shape"></path>
                </g>
            </g>
        </g>
    </g>
</svg>