<?xml version="1.0" encoding="UTF-8" standalone="no"?>
<svg width="80px" height="49px" viewBox="0 0 80 49" version="1.1" xmlns="http://www.w3.org/2000/svg" xmlns:xlink="http://www.w3.org/1999/xlink">
    <!-- Generator: Sketch 39.1 (31720) - http://www.bohemiancoding.com/sketch -->
    <title>ic_wood</title>
    <desc>Created with Sketch.</desc>
    <defs></defs>
    <g id="Website" stroke="none" stroke-width="1" fill="none" fill-rule="evenodd">
        <g id="Главная" transform="translate(-533.000000, -2278.000000)" fill="#D79668">
            <g id="ic_wood" transform="translate(523.000000, 2252.000000)">
                <path d="M77.8181818,26.3636364 L22,26.3636364 C15.3636364,26.3636364 10.1818182,37 10.1818182,50.5454545 C10.1818182,64.0909091 15.3636364,74.7272727 22.0909091,74.7272727 L77.9090909,74.7272727 C84.5454545,74.7272727 89.8181818,64.0909091 89.8181818,50.5454545 C89.7272727,37 84.4545455,26.3636364 77.8181818,26.3636364 L77.8181818,26.3636364 Z M12,50.5454545 C12,38.4545455 16.5454545,28.2727273 22,28.2727273 C27.4545455,28.2727273 32,38.4545455 32,50.5454545 C32,62.6363636 27.4545455,72.8181818 22,72.8181818 C16.5454545,72.8181818 12,62.6363636 12,50.5454545 L12,50.5454545 Z M77.8181818,72.8181818 L26.7272727,72.8181818 C28,71.7272727 29.0909091,70.2727273 30.0909091,68.5454545 L44.3636364,68.5454545 L44.3636364,66.7272727 L30.9090909,66.7272727 C31.5454545,65.2727273 32.0909091,63.6363636 32.5454545,61.9090909 L43.2727273,61.9090909 L43.2727273,60.0909091 L33,60.0909091 C33.5454545,57.3636364 33.9090909,54.3636364 33.9090909,51.1818182 L47.7272727,51.1818182 L47.7272727,49.3636364 L33.9090909,49.3636364 C33.7272727,43.2727273 32.5454545,37.9090909 30.6363636,33.9090909 L52.7272727,33.9090909 L52.7272727,32.0909091 L29.6363636,32.0909091 C28.7272727,30.6363636 27.7272727,29.3636364 26.7272727,28.4545455 L77.8181818,28.4545455 C81.0909091,28.4545455 84.0909091,32.2727273 85.9090909,37.9090909 L72,37.9090909 L72,39.7272727 L86.4545455,39.7272727 C87.1818182,42.6363636 87.6363636,45.9090909 87.8181818,49.3636364 L68.1818182,49.3636364 L68.1818182,51.1818182 L87.8181818,51.1818182 C87.8181818,52.6363636 87.7272727,54 87.5454545,55.3636364 L64.7272727,55.3636364 L64.7272727,57.1818182 L87.3636364,57.1818182 C86.8181818,60.8181818 85.9090909,64.1818182 84.6363636,66.7272727 L64.7272727,66.7272727 L64.7272727,68.5454545 L83.6363636,68.5454545 C82,71.2727273 80,72.8181818 77.8181818,72.8181818 L77.8181818,72.8181818 Z" id="Shape"></path>
                <path d="M22,32.3636364 C17.6363636,32.3636364 14.3636364,40.1818182 14.3636364,50.5454545 C14.3636364,60.9090909 17.6363636,68.7272727 22,68.7272727 C26.3636364,68.7272727 29.6363636,60.9090909 29.6363636,50.5454545 C29.6363636,40.1818182 26.3636364,32.3636364 22,32.3636364 L22,32.3636364 Z M22,66.9090909 C19.2727273,66.9090909 16.2727273,60.1818182 16.2727273,50.5454545 C16.2727273,40.9090909 19.2727273,34.1818182 22,34.1818182 C24.7272727,34.1818182 27.7272727,40.9090909 27.7272727,50.5454545 C27.8181818,60.1818182 24.7272727,66.9090909 22,66.9090909 L22,66.9090909 Z" id="Shape"></path>
                <rect id="Rectangle-path" x="36.9090909" y="43.5454545" width="24" height="1.81818182"></rect>
                <rect id="Rectangle-path" x="37.3636364" y="37.7272727" width="11.6363636" height="1.81818182"></rect>
                <rect id="Rectangle-path" x="53.6363636" y="37.7272727" width="11.6363636" height="1.81818182"></rect>
                <rect id="Rectangle-path" x="46.9090909" y="60" width="11.6363636" height="1.81818182"></rect>
                <rect id="Rectangle-path" x="63.1818182" y="43.5454545" width="5.81818182" height="1.81818182"></rect>
                <rect id="Rectangle-path" x="77.8181818" y="60" width="5.81818182" height="1.81818182"></rect>
                <rect id="Rectangle-path" x="60.9090909" y="60" width="5.81818182" height="1.81818182"></rect>
                <rect id="Rectangle-path" x="48.2727273" y="55.2727273" width="5.81818182" height="1.81818182"></rect>
                <rect id="Rectangle-path" x="60.8181818" y="31.8181818" width="20.5454545" height="1.81818182"></rect>
                <rect id="Rectangle-path" x="51.1818182" y="49.1818182" width="14.0909091" height="1.81818182"></rect>
                <rect id="Rectangle-path" x="47.7272727" y="66.6363636" width="14.0909091" height="1.81818182"></rect>
            </g>
        </g>
    </g>
</svg>